<svg width="1438" height="769" viewBox="0 0 1438 769" fill="none" xmlns="http://www.w3.org/2000/svg">
<g clip-path="url(#clip0_11_111)">
<path d="M1267.21 789.235C1221.82 789.235 1176.05 789.201 1130.74 789.081C814.483 788.244 492.923 788.6 181.953 788.951C98.3476 789.042 11.9008 789.138 -73.131 789.211V787.288C11.8951 787.216 98.3477 787.12 181.947 787.028C351.706 786.841 524.669 786.644 698.155 786.644C842.467 786.644 987.13 786.779 1130.74 787.158C1205.55 787.355 1281.61 787.317 1355.17 787.283C1406.05 787.259 1458.65 787.235 1510.39 787.283L1510.39 789.206C1458.65 789.153 1406.04 789.177 1355.17 789.206C1326.17 789.22 1296.77 789.235 1267.21 789.235Z" fill="#6AD6CF" fill-opacity="0.15"/>
<path d="M1243.58 775.489C1204.72 775.489 1165.68 775.013 1126.96 773.561C1095.91 772.393 1064.22 770.634 1033.59 768.928C964.087 765.064 892.222 761.07 821.886 763.651C788.139 764.891 753.794 766.837 720.588 768.721C669.084 771.644 615.832 774.662 563.431 775.123C499.159 775.691 433.799 773.167 370.584 770.735C325.201 768.986 278.27 767.179 232.145 766.525C172.336 765.679 111.52 768.222 52.6998 770.682C11.4694 772.408 -31.1702 774.191 -73.108 774.792L-73.1483 772.869C-31.2449 772.269 11.3716 770.485 52.5847 768.765C111.439 766.304 172.301 763.761 232.185 764.603C278.345 765.256 325.287 767.063 370.688 768.813C433.862 771.25 499.193 773.763 563.403 773.201C615.74 772.739 668.963 769.721 720.427 766.804C753.65 764.92 788.007 762.973 821.783 761.728C892.245 759.143 964.179 763.141 1033.74 767.006C1064.37 768.707 1096.04 770.466 1127.07 771.634C1202.65 774.475 1279.5 773.576 1353.82 772.706C1405.14 772.105 1458.2 771.485 1510.42 772.1L1510.38 774.023C1458.2 773.408 1405.15 774.028 1353.85 774.628C1317.55 775.056 1280.65 775.489 1243.58 775.489Z" fill="#6AD6CF" fill-opacity="0.15"/>
<path d="M1226.69 762.521C1193.25 762.521 1159.73 761.743 1126.4 759.561C1090.64 757.22 1054.37 754.144 1019.29 751.169C1000.77 749.597 981.608 747.973 962.758 746.473C958.105 746.103 953.452 745.728 948.787 745.349C904.755 741.782 859.228 738.096 814.593 741.076C780.828 743.33 746.558 746.839 713.415 750.232C667.502 754.932 620.025 759.792 573.083 761.406C528.402 762.944 482.38 759.811 437.871 756.778C426.056 755.975 413.845 755.139 401.933 754.418C394.282 753.952 386.632 753.481 378.982 753.015C326.029 749.761 271.27 746.396 217.305 744.969C160.987 743.479 103.904 748.16 48.6964 752.688C8.81775 755.956 -32.4183 759.34 -73.085 760.378L-73.154 758.455C-32.5679 757.422 8.63369 754.043 48.4721 750.775C103.749 746.243 160.906 741.552 217.374 743.046C271.391 744.474 326.173 747.843 379.149 751.097C386.799 751.568 394.449 752.039 402.099 752.5C414.023 753.226 426.24 754.058 438.055 754.86C482.495 757.888 528.448 761.022 572.986 759.484C619.836 757.869 667.267 753.015 713.133 748.319C746.299 744.926 780.592 741.412 814.408 739.153C859.245 736.159 904.882 739.855 949.011 743.431C953.67 743.811 958.324 744.186 962.977 744.556C981.838 746.055 1001 747.68 1019.53 749.251C1054.59 752.226 1090.86 755.302 1126.59 757.638C1202.38 762.598 1279.34 760.296 1353.76 758.071C1405.06 756.538 1458.13 754.952 1510.42 755.745L1510.38 757.667C1458.14 756.869 1405.12 758.455 1353.84 759.989C1312.04 761.248 1269.44 762.521 1226.69 762.521Z" fill="#6AD6CF" fill-opacity="0.15"/>
<path d="M1214.53 750.304C1184.89 750.304 1155.19 749.304 1125.58 746.656C1089.18 743.402 1052.33 739.062 1016.7 734.866C997.892 732.651 978.444 730.363 959.296 728.258C954.314 727.71 949.316 727.147 944.312 726.585C900.418 721.649 855.029 716.545 810.819 720.659C778.51 723.668 745.81 728.493 714.186 733.165C670.925 739.552 626.192 746.156 581.683 748.223C557.001 749.367 531.508 747.55 506.855 745.786C501.258 745.387 495.466 744.974 489.829 744.604C459.959 742.657 430.744 740.22 403.624 737.875C395.766 737.197 387.903 736.51 380.046 735.823C324.89 731.002 267.859 726.023 211.524 723.927C156.357 721.88 100.786 728.522 47.0455 734.953C7.77089 739.648 -32.844 744.508 -73.0735 745.954L-73.1713 744.032C-33.0568 742.59 7.50054 737.74 46.7234 733.05C100.568 726.609 156.247 719.953 211.628 722.01C268.032 724.105 325.097 729.094 380.288 733.915C388.145 734.602 396.002 735.289 403.859 735.967C430.969 738.308 460.166 740.744 490.007 742.691C495.656 743.061 501.448 743.474 507.05 743.873C531.629 745.632 557.041 747.444 581.556 746.305C625.927 744.243 670.591 737.649 713.789 731.271C745.448 726.6 778.182 721.764 810.572 718.751C855.064 714.608 900.596 719.731 944.628 724.682C949.632 725.244 954.625 725.806 959.606 726.354C978.766 728.46 998.219 730.752 1017.03 732.963C1052.64 737.159 1089.47 741.494 1125.83 744.743C1202.19 751.568 1279.38 747.415 1354.03 743.402C1405.18 740.648 1458.09 737.803 1510.42 738.49L1510.39 740.413C1458.14 739.725 1405.29 742.571 1354.18 745.32C1308.34 747.786 1261.53 750.304 1214.53 750.304Z" fill="#6AD6CF" fill-opacity="0.15"/>
<path d="M1214.88 739.351C1183.55 739.351 1154.25 737.779 1125.82 734.64C1089.29 730.603 1052.41 725.143 1016.75 719.861C997.926 717.074 978.456 714.19 959.273 711.551C954.59 710.907 949.88 710.244 945.157 709.581C901.183 703.4 855.719 697.012 811.728 702.02C780.385 705.587 748.795 711.522 718.241 717.261C676.924 725.018 634.204 733.045 591.357 735.371C565.957 736.746 539.526 734.357 513.964 732.045C508.638 731.564 503.127 731.065 497.778 730.618C467.367 728.065 437.704 724.864 410.175 721.788C402.266 720.904 394.357 720.01 386.448 719.116C330.355 712.772 272.346 706.211 214.872 703.496C159.049 700.857 103.214 709.316 49.2198 717.492C9.30092 723.538 -31.9754 729.786 -73.0677 731.55L-73.1828 729.632C-32.24 727.878 8.96155 721.639 48.8114 715.603C102.938 707.408 158.916 698.935 215.004 701.583C272.57 704.303 330.619 710.869 386.759 717.218C394.668 718.112 402.571 719.006 410.48 719.89C437.986 722.966 467.632 726.162 498.008 728.714C503.363 729.166 508.879 729.661 514.212 730.147C539.676 732.449 566.014 734.833 591.214 733.468C633.882 731.151 676.51 723.144 717.74 715.401C748.341 709.653 779.977 703.712 811.423 700.136C855.76 695.09 901.402 701.506 945.543 707.706C950.265 708.369 954.964 709.028 959.646 709.672C978.841 712.311 998.317 715.199 1017.15 717.987C1052.79 723.264 1089.64 728.719 1126.13 732.752C1182.11 738.937 1241.53 739.004 1313.14 732.973C1325.4 731.939 1337.85 730.829 1349.9 729.752C1402.36 725.066 1456.6 720.226 1510.41 720.587L1510.39 722.509C1456.71 722.135 1402.53 726.979 1350.14 731.661C1338.09 732.737 1325.63 733.852 1313.37 734.885C1277.92 737.856 1245.43 739.351 1214.88 739.351Z" fill="#6AD6CF" fill-opacity="0.15"/>
<path d="M1208.33 729.45C1179.14 729.45 1151.05 726.383 1126.86 723.254C1090.57 718.559 1054.07 712.109 1018.77 705.87C1000.13 702.578 980.866 699.17 961.867 696.065C958.013 695.436 954.142 694.792 950.254 694.148C905.998 686.813 860.235 679.224 816.094 684.867C785.2 688.818 754.208 695.666 724.24 702.289C684.143 711.152 642.683 720.313 600.739 722.716C574.728 724.206 547.544 721.26 521.258 718.41C516.593 717.905 511.773 717.381 507.096 716.9C476.657 713.772 445.889 709.667 419.798 706.067C411.987 704.991 404.17 703.9 396.359 702.809C340.432 695.003 282.607 686.929 225.07 683.66C167.36 680.383 109.915 690.49 54.3678 700.271C12.8211 707.586 -30.1463 715.146 -73.0677 717.107L-73.1943 715.189C-30.4454 713.233 12.43 705.688 53.8904 698.392C109.599 688.587 167.199 678.446 225.225 681.743C282.872 685.021 340.754 693.1 396.733 700.915C404.544 702.006 412.355 703.097 420.166 704.173C446.229 707.769 476.973 711.868 507.367 714.992C512.049 715.473 516.875 715.997 521.54 716.502C547.717 719.337 574.786 722.269 600.572 720.794C642.297 718.405 683.654 709.263 723.642 700.425C753.667 693.787 784.717 686.924 815.737 682.959C860.275 677.263 906.239 684.881 950.691 692.254C954.579 692.898 958.45 693.537 962.298 694.167C981.314 697.277 1000.59 700.679 1019.23 703.976C1054.5 710.21 1090.98 716.655 1127.2 721.341C1155.06 724.946 1188.11 728.469 1222 727.282C1255.24 726.114 1288.29 722.639 1313.38 719.736C1325.66 718.313 1338.15 716.79 1350.22 715.319C1402.45 708.941 1456.46 702.347 1510.39 702.251L1510.39 704.173C1456.63 704.27 1402.71 710.854 1350.55 717.222C1338.48 718.698 1325.99 720.222 1313.69 721.644C1288.56 724.552 1255.43 728.037 1222.1 729.204C1217.5 729.373 1212.9 729.45 1208.33 729.45Z" fill="#6AD6CF" fill-opacity="0.15"/>
<path d="M1205.39 718.799C1177.6 718.799 1151.23 715.564 1128.45 712.234C1092.67 707 1056.83 699.68 1022.16 692.6C1003.87 688.866 984.967 685.006 966.307 681.503C963.822 681.036 961.332 680.565 958.83 680.094C913.987 671.621 867.614 662.859 822.743 668.915C791.74 673.101 760.794 680.7 730.872 688.053C691.252 697.791 650.275 707.855 608.481 710.177C581.809 711.662 553.946 708.158 526.998 704.774C523.38 704.318 519.785 703.866 516.219 703.433C486.355 699.781 456.237 694.965 430.71 690.735C423.111 689.476 415.513 688.202 407.915 686.929C353.144 677.749 296.516 668.252 239.864 664.517C178.956 660.499 118.232 672.174 59.5101 683.468C16.2608 691.783 -28.461 700.381 -73.0562 702.703L-73.2 700.785C-28.7888 698.473 15.8352 689.894 58.9925 681.599C117.887 670.275 178.784 658.567 240.042 662.604C296.826 666.348 353.529 675.855 408.363 685.05C415.962 686.323 423.554 687.597 431.153 688.856C456.646 693.081 486.729 697.892 516.547 701.535C520.113 701.972 523.708 702.424 527.332 702.876C554.159 706.245 581.895 709.73 608.32 708.264C649.861 705.957 690.712 695.916 730.216 686.213C760.207 678.845 791.222 671.222 822.369 667.021C867.678 660.908 914.269 669.708 959.33 678.225C961.832 678.696 964.323 679.167 966.808 679.633C985.49 683.141 1004.41 687.006 1022.7 690.74C1057.33 697.81 1093.14 705.12 1128.84 710.345C1156.14 714.339 1188.6 718.189 1222.42 716.454C1255.62 714.752 1288.61 710.282 1313.64 706.577C1325.97 704.75 1338.49 702.799 1350.6 700.91C1402.56 692.807 1456.3 684.425 1510.37 683.809L1510.4 685.732C1456.52 686.342 1402.88 694.71 1351.02 702.799C1338.9 704.688 1326.38 706.644 1314.04 708.466C1288.94 712.181 1255.87 716.66 1222.56 718.366C1216.8 718.664 1211.07 718.799 1205.39 718.799Z" fill="#6AD6CF" fill-opacity="0.15"/>
<path d="M1203.44 708.062C1176.23 708.062 1150.63 704.587 1130.34 701.314C1095.23 695.647 1060.21 687.582 1026.36 679.782C1008.5 675.668 990.04 671.414 971.789 667.564L970.489 667.29C924.502 657.591 876.95 647.561 830.451 653.847C798.752 658.135 767.259 666.353 736.808 674.303C696.889 684.723 655.607 695.498 613.215 697.608C585.577 698.988 556.868 694.864 529.103 690.88C527.246 690.615 525.399 690.346 523.559 690.086C494.683 685.968 465.676 680.503 441.109 675.697C433.827 674.274 426.551 672.832 419.269 671.39C366.5 660.946 311.937 650.142 256.971 646.052C203.793 642.091 150.944 652.18 99.8374 661.931L97.8875 662.306C90.0303 663.806 82.0292 665.363 74.2985 666.872C26.4131 676.196 -23.1001 685.843 -73.0562 688.279L-73.1885 686.362C-23.428 683.939 25.9875 674.312 73.7751 665.003C81.5115 663.498 89.5126 661.936 97.3755 660.437L99.3255 660.067C150.605 650.281 203.632 640.159 257.178 644.144C312.305 648.248 366.955 659.067 419.804 669.525C427.08 670.967 434.357 672.409 441.639 673.832C466.171 678.633 495.138 684.093 523.95 688.198C525.79 688.462 527.643 688.726 529.5 688.991C557.133 692.956 585.709 697.06 613.083 695.695C655.199 693.6 696.343 682.858 736.13 672.476C766.661 664.508 798.228 656.265 830.094 651.959C877.065 645.609 924.853 655.688 971.064 665.435L972.364 665.709C990.638 669.564 1009.11 673.817 1026.98 677.936C1060.8 685.727 1095.76 693.782 1130.78 699.435C1155.74 703.462 1188.76 707.793 1222.84 705.519C1255.99 703.304 1288.93 697.868 1313.91 693.379C1326.29 691.153 1338.85 688.774 1351 686.477C1402.67 676.691 1456.11 666.574 1510.38 665.478L1510.44 667.401C1456.4 668.492 1403.08 678.59 1351.51 688.351C1339.36 690.654 1326.79 693.033 1314.4 695.258C1289.34 699.761 1256.31 705.212 1223.02 707.437C1216.44 707.87 1209.89 708.062 1203.44 708.062Z" fill="#6AD6CF" fill-opacity="0.15"/>
<path d="M1201.48 697.055C1180.87 697.055 1158.71 694.84 1132.28 690.24C1097.87 684.247 1063.74 675.547 1030.74 667.132C1013.34 662.696 995.343 658.106 977.535 653.977C929.955 642.932 883.473 633.512 838.032 639.405C805.021 643.687 772.344 652.41 740.743 660.85C699.737 671.803 657.333 683.127 613.583 684.924C562.655 687.015 507.965 674.442 459.706 663.354C456.18 662.542 452.671 661.739 449.197 660.941C442.312 659.37 435.426 657.779 428.541 656.183C378.487 644.61 326.731 632.647 274.117 628.326C220.158 623.9 166.129 634.507 113.878 644.768L108.431 645.835C99.9237 647.503 91.2612 649.238 82.8863 650.92C32.2341 661.076 -20.1493 671.578 -73.0677 673.856L-73.1885 671.938C-20.4772 669.674 31.797 659.192 82.3456 649.055C90.7262 647.373 99.3888 645.638 107.902 643.97L113.349 642.903C165.784 632.608 220.002 621.958 274.342 626.418C327.156 630.753 379.011 642.74 429.157 654.333C436.042 655.924 442.921 657.514 449.806 659.086C453.286 659.879 456.789 660.687 460.321 661.499C508.414 672.553 562.92 685.073 613.48 683.007C656.93 681.224 699.184 669.934 740.052 659.019C771.734 650.555 804.498 641.808 837.687 637.501C883.588 631.551 930.323 641.024 978.156 652.122C995.993 656.26 1014 660.85 1031.41 665.291C1064.36 673.692 1098.44 682.382 1132.75 688.356C1168.54 694.59 1196.44 696.411 1223.21 694.273C1256.13 691.639 1287.65 685.621 1314.14 680.08C1326.58 677.48 1339.19 674.697 1351.39 672.005C1402.76 660.672 1455.88 648.959 1510.37 647.498L1510.44 649.421C1456.22 650.872 1403.22 662.561 1351.98 673.865C1339.77 676.557 1327.15 679.34 1314.71 681.945C1288.13 687.501 1256.51 693.542 1223.43 696.186C1216.23 696.767 1208.96 697.055 1201.48 697.055Z" fill="#6AD6CF" fill-opacity="0.15"/>
<path d="M1200.37 685.472C1180.15 685.472 1158.54 683.266 1134.01 678.748C1100.24 672.529 1066.92 663.296 1034.7 654.362C1017.72 649.656 1000.16 644.788 982.764 640.423C941.298 630.028 892.987 619.425 844.307 625.255C809.33 629.446 774.795 638.597 741.393 647.445C698.494 658.812 654.135 670.563 608.268 671.981C605.559 672.063 602.844 672.106 600.129 672.106C550.34 672.106 498.888 658.49 453.212 646.402C446.781 644.701 440.35 642.976 433.919 641.255C387.156 628.715 338.799 615.753 289.055 611.365C234.411 606.539 179.244 617.579 125.9 628.254C123.225 628.787 120.556 629.321 117.893 629.854C108.782 631.671 99.5095 633.565 90.5422 635.396C37.4167 646.253 -17.5149 657.476 -73.0677 659.437L-73.1655 657.514C-17.8428 655.563 36.9795 644.36 89.9957 633.526C98.9689 631.695 108.247 629.797 117.358 627.98C120.021 627.451 122.69 626.918 125.359 626.38C178.893 615.666 234.25 604.593 289.291 609.452C339.27 613.864 387.742 626.855 434.615 639.424C441.046 641.149 447.471 642.87 453.902 644.571C501.891 657.269 556.293 671.669 608.182 670.064C653.738 668.655 697.942 656.942 740.697 645.614C774.185 636.742 808.818 627.567 843.985 623.352C893.119 617.464 941.729 628.124 983.431 638.583C1000.87 642.952 1018.44 647.825 1035.43 652.535C1067.59 661.451 1100.86 670.674 1134.51 676.869C1168.47 683.122 1196.76 684.92 1223.53 682.536C1256.42 679.599 1287.89 672.861 1314.34 666.651C1326.82 663.719 1339.48 660.581 1351.72 657.548C1402.82 644.879 1455.65 631.777 1510.36 630.172L1510.44 632.094C1456.02 633.69 1403.33 646.758 1352.38 659.394C1340.12 662.431 1327.46 665.57 1314.96 668.506C1288.42 674.735 1256.83 681.502 1223.77 684.453C1216.12 685.131 1208.35 685.472 1200.37 685.472Z" fill="#6AD6CF" fill-opacity="0.15"/>
<path d="M1199.54 673.111C1179.44 673.111 1158.22 670.943 1135.3 666.579C1103.33 660.49 1071.21 650.872 1040.14 641.567C978.45 623.092 914.654 603.987 848.052 611.139C810.411 615.181 773.287 624.697 737.389 633.901C691.787 645.59 644.633 657.678 595.867 658.702C593.911 658.745 591.956 658.764 590.011 658.764C534.326 658.764 481.718 642.288 430.773 626.336C388.461 613.086 344.706 599.383 299.472 595.211C244.31 590.126 188.274 601.507 134.079 612.518C131.013 613.143 127.953 613.763 124.905 614.378C115.293 616.32 105.503 618.358 96.0353 620.324C41.1325 631.739 -15.6398 643.538 -73.0907 645.018L-73.1598 643.096C-15.9561 641.62 40.6953 629.845 95.4832 618.459C104.957 616.488 114.747 614.455 124.37 612.509C127.418 611.894 130.473 611.274 133.544 610.649C187.929 599.599 244.167 588.175 299.731 593.298C345.247 597.499 389.14 611.24 431.59 624.534C484.106 640.981 538.416 657.981 595.815 656.779C644.259 655.76 691.264 643.711 736.716 632.061C772.712 622.833 809.928 613.292 847.764 609.231C914.925 602.017 978.979 621.203 1040.92 639.755C1071.92 649.041 1103.98 658.639 1135.81 664.705C1167.99 670.833 1196.76 672.597 1223.76 670.088C1256.63 667.036 1288.07 659.745 1314.48 653.016C1327 649.825 1339.7 646.402 1351.98 643.086C1402.84 629.364 1455.44 615.176 1510.37 613.725L1510.45 615.647C1455.84 617.089 1403.4 631.239 1352.69 644.917C1340.4 648.234 1327.69 651.66 1315.15 654.857C1288.64 661.609 1257.08 668.929 1224.01 672.001C1216.01 672.741 1207.87 673.111 1199.54 673.111Z" fill="#6AD6CF" fill-opacity="0.15"/>
<path d="M1194.96 659.028C1174.71 659.028 1155.17 657.183 1135.88 653.468C1102.87 647.114 1070.46 637.275 1039.12 627.764C978.53 609.375 915.88 590.362 848.092 596.74C807.029 600.604 766.54 610.447 727.386 619.968C678.276 631.912 627.491 644.259 575.062 644.941C574.009 644.956 572.951 644.961 571.904 644.961C519.59 644.961 471.865 628.153 425.671 611.884C386.58 598.119 346.161 583.883 303.153 579.889C247.652 574.736 191.156 586.42 136.518 597.72C133.728 598.297 130.95 598.869 128.183 599.441C118.215 601.493 108.057 603.651 98.2268 605.742C42.6222 617.555 -14.8805 629.778 -73.0965 630.604L-73.1368 628.682C-15.1911 627.86 42.1793 615.667 97.6574 603.882C107.488 601.791 117.651 599.633 127.631 597.576C130.398 597.004 133.176 596.432 135.966 595.855C190.8 584.517 247.497 572.79 303.406 577.976C346.748 581.999 387.322 596.288 426.568 610.11C473.47 626.63 521.971 643.706 575.033 643.019C627.158 642.341 677.787 630.028 726.754 618.123C766 608.577 806.586 598.71 847.845 594.827C878.515 591.938 910.72 593.937 946.302 600.931C978.007 607.164 1009.48 616.714 1039.92 625.952C1071.2 635.444 1103.54 645.263 1136.41 651.588C1204.17 664.628 1267.21 651.771 1314.56 639.111C1327.11 635.757 1339.84 632.138 1352.15 628.639C1402.84 614.225 1455.27 599.32 1510.4 598.417L1510.45 600.339C1455.67 601.238 1403.42 616.094 1352.89 630.46C1340.57 633.964 1327.83 637.583 1315.26 640.943C1281.72 649.911 1253.51 655.203 1226.48 657.596C1215.73 658.553 1205.25 659.028 1194.96 659.028Z" fill="#6AD6CF" fill-opacity="0.15"/>
<path d="M1200.61 643.927C1181.01 643.927 1160.48 641.822 1137.62 637.525C1105.52 631.493 1073.43 622.217 1042.41 613.244C979.617 595.091 914.689 576.318 846.453 583.58C804.262 588.069 762.393 598.282 721.911 608.159C669.711 620.896 615.729 634.065 560.354 635.156C508.385 636.16 461.092 617.892 415.346 600.205C378.919 586.122 341.249 571.56 301.439 566.821C249.844 560.688 195.976 571.689 143.886 582.33C138.485 583.431 133.136 584.527 127.838 585.589C118.054 587.55 108.08 589.612 98.4397 591.602C42.7431 603.098 -14.846 614.979 -73.0965 616.186L-73.154 614.263C-15.1508 613.066 42.3117 601.204 97.8875 589.737C107.534 587.747 117.508 585.69 127.297 583.724C132.589 582.662 137.939 581.571 143.334 580.465C193.198 570.276 249.723 558.732 301.756 564.917C341.899 569.69 379.724 584.315 416.307 598.46C461.811 616.051 508.856 634.233 560.291 633.233C615.366 632.147 669.193 619.016 721.255 606.313C761.829 596.417 803.779 586.18 846.154 581.672C914.93 574.352 980.118 593.202 1043.16 611.427C1074.12 620.381 1106.14 629.638 1138.13 635.646C1170.67 641.76 1198.44 643.408 1225.52 640.822C1258.83 637.645 1291.25 630.018 1315.78 623.731C1327.91 620.622 1340.2 617.301 1352.08 614.09C1402.86 600.368 1455.35 586.18 1510.35 584.464L1510.44 586.387C1455.76 588.088 1403.41 602.238 1352.79 615.916C1340.9 619.132 1328.6 622.453 1316.45 625.567C1291.83 631.883 1259.27 639.539 1225.78 642.73C1217.5 643.528 1209.14 643.927 1200.61 643.927Z" fill="#6AD6CF" fill-opacity="0.15"/>
<path d="M1205.83 625.221C1186.7 625.221 1166.23 623.265 1142.23 619.228C1110.65 613.917 1078.51 605.737 1047.42 597.826C981.797 581.124 913.935 563.855 845.262 571.603C802.318 576.447 759.546 586.493 718.178 596.206C664.322 608.851 608.636 621.924 551.801 623.736C508.937 625.096 465.693 608.967 427.535 594.73C422.22 592.745 416.813 590.698 411.584 588.723C375.629 575.106 338.448 561.024 298.747 555.67C249.574 549.037 194.924 559.693 146.705 569.099C139.756 570.454 133.193 571.733 126.584 572.982C117.122 574.765 107.488 576.63 98.1693 578.432C42.5187 589.198 -15.03 600.33 -73.0907 601.776L-73.1598 599.854C-15.3291 598.417 42.1103 587.305 97.6517 576.558C106.97 574.756 116.61 572.891 126.078 571.103C132.676 569.858 139.239 568.58 146.181 567.224C194.607 557.78 249.493 547.081 299.115 553.772C339.121 559.169 376.44 573.304 412.533 586.973C417.756 588.953 423.157 590.996 428.472 592.981C466.401 607.131 509.386 623.169 551.709 621.818C608.268 620.016 663.827 606.972 717.551 594.36C758.994 584.632 801.846 574.568 844.946 569.704C914.125 561.899 982.223 579.23 1048.08 595.99C1079.12 603.886 1111.21 612.057 1142.68 617.349C1177.05 623.131 1204.1 624.62 1230.39 622.174C1256.33 619.766 1283.74 615.027 1319.24 606.823C1330.65 604.184 1342.2 601.397 1353.37 598.7C1403.9 586.502 1456.14 573.886 1510.34 571.747L1510.45 573.669C1456.52 575.799 1404.41 588.381 1354.01 600.551C1342.83 603.247 1331.28 606.04 1319.86 608.678C1284.23 616.916 1256.71 621.669 1230.65 624.092C1222.51 624.837 1214.3 625.221 1205.83 625.221Z" fill="#6AD6CF" fill-opacity="0.15"/>
<path d="M541.585 610.149C502.575 610.149 462.392 596.134 426.747 583.7L423.497 582.566C418.211 580.725 412.838 578.827 407.638 576.991C371.706 564.292 334.548 551.162 295.325 545.865C247.204 539.362 193.532 548.994 146.176 557.492C138.75 558.823 131.738 560.082 124.68 561.298C115.586 562.865 106.337 564.494 97.3871 566.071C41.9205 575.852 -15.4327 585.959 -73.0965 587.348L-73.1655 585.426C-15.7088 584.046 41.5409 573.953 96.9096 564.192C105.86 562.615 115.115 560.981 124.214 559.414C131.261 558.203 138.272 556.944 145.692 555.612C193.244 547.081 247.14 537.411 295.693 543.972C335.186 549.307 372.477 562.485 408.536 575.227C413.73 577.063 419.102 578.961 424.383 580.802L427.632 581.936C464.681 594.855 506.671 609.49 546.831 608.15C604.161 606.213 660.819 593.827 715.618 581.85C757.452 572.708 800.707 563.25 844.02 558.491C894.931 552.897 944.801 560.568 991.513 568.907C1009.71 572.156 1028.13 575.741 1045.94 579.211C1079.71 585.786 1114.62 592.582 1149.41 597.35C1174.88 600.839 1205.3 604.055 1237.8 601.435C1263.13 599.393 1290.66 595.375 1324.44 588.785C1334.92 586.742 1345.53 584.599 1355.78 582.527C1405.75 572.429 1457.43 561.985 1510.34 559.986L1510.45 561.909C1457.75 563.903 1406.19 574.323 1356.32 584.397C1346.06 586.473 1335.45 588.617 1324.96 590.66C1291.08 597.268 1263.44 601.301 1238.01 603.348C1205.06 606.001 1173.14 602.55 1149.02 599.244C1114.16 594.471 1079.21 587.665 1045.41 581.081C1027.6 577.615 1009.19 574.03 991.018 570.786C944.496 562.481 894.85 554.839 844.307 560.395C801.139 565.138 757.953 574.578 716.187 583.705C661.273 595.706 604.495 608.121 546.912 610.062C545.152 610.12 543.368 610.149 541.585 610.149Z" fill="#6AD6CF" fill-opacity="0.15"/>
<path d="M539.566 594.663C501.258 594.663 461.362 582.383 425.976 571.487L420.851 569.911C415.547 568.282 410.244 566.633 404.935 564.98C368.41 553.618 330.642 541.867 291.379 537.051C243.344 531.163 192.514 539.223 143.357 547.014C136.414 548.115 129.236 549.254 122.305 550.311C113.625 551.633 104.796 553.007 96.2539 554.339C41.0807 562.932 -15.9676 571.814 -73.0965 572.925L-73.1483 571.002C-16.2034 569.897 40.7529 561.024 95.834 552.445C104.376 551.114 113.205 549.739 121.891 548.417C128.816 547.36 135.994 546.226 142.931 545.125C192.272 537.301 243.298 529.212 291.718 535.147C331.223 539.987 369.106 551.777 405.74 563.177C411.044 564.826 416.341 566.475 421.645 568.104L426.775 569.68C463.669 581.037 505.497 593.913 545.014 592.649C602.395 590.818 659.444 579.653 714.617 568.858C756.607 560.64 800.023 552.147 843.33 547.807C895.914 542.539 950.144 549.451 993.71 555.007C1012.59 557.415 1031.75 560.068 1050.28 562.639C1085.42 567.508 1121.76 572.545 1157.72 576.097C1183.95 578.692 1215.08 581.081 1247.05 579.149C1271.93 577.649 1298.58 574.712 1330.92 569.921C1340.31 568.527 1349.83 567.075 1359.04 565.667C1408.22 558.16 1459.06 550.398 1510.36 548.927L1510.44 550.849C1459.31 552.315 1408.54 560.068 1359.46 567.561C1350.24 568.969 1340.72 570.42 1331.32 571.814C1298.9 576.621 1272.18 579.562 1247.21 581.066C1215.05 583.008 1183.78 580.61 1157.44 578.005C1121.43 574.443 1085.06 569.406 1049.9 564.533C1031.38 561.966 1012.23 559.313 993.359 556.905C938.123 549.864 892.02 544.861 843.6 549.715C800.42 554.041 757.067 562.524 715.14 570.728C659.864 581.547 602.706 592.731 545.1 594.567C543.259 594.634 541.413 594.663 539.566 594.663Z" fill="#6AD6CF" fill-opacity="0.15"/>
<path d="M540.889 577.88C500.988 577.88 460.96 567.551 422.237 557.559C420 556.982 417.768 556.405 415.553 555.838C411.36 554.762 407.167 553.676 402.974 552.589C364.913 542.727 325.557 532.533 285.299 528.673C236.574 524.002 185.738 530.865 136.575 537.507C129.932 538.406 123.064 539.334 116.386 540.204C109.213 541.141 102.035 542.092 94.8619 543.044C40.0626 550.311 -16.6003 557.823 -73.1022 558.52L-73.1368 556.598C-16.7959 555.901 39.7865 548.398 94.4995 541.146C101.678 540.194 108.857 539.242 116.029 538.305C122.702 537.435 129.564 536.508 136.202 535.609C185.519 528.947 236.511 522.06 285.552 526.765C326.029 530.644 365.488 540.872 403.647 550.758C407.84 551.844 412.033 552.931 416.22 554.007C418.441 554.579 420.667 555.151 422.91 555.733C461.713 565.744 501.851 576.092 541.637 575.967C586.169 575.818 631.541 568.421 675.417 561.265C680.64 560.414 685.84 559.563 691.017 558.732C697.695 557.66 704.373 556.574 711.051 555.487C753.161 548.639 796.71 541.559 840.126 537.714C890.772 533.23 942.149 537.07 991.829 540.785L993.98 540.944C1014.38 542.467 1035.11 544.169 1055.16 545.808C1091.28 548.768 1128.62 551.825 1165.43 553.983C1220.82 557.232 1277.12 556.131 1337.54 550.619C1346.17 549.83 1354.79 549.023 1363.41 548.216C1411.4 543.722 1461.02 539.069 1510.38 538.348L1510.42 540.271C1461.17 540.992 1411.6 545.635 1363.66 550.124C1355.04 550.931 1346.42 551.739 1337.79 552.527C1277.23 558.049 1220.8 559.155 1165.27 555.896C1128.43 553.738 1091.07 550.676 1054.94 547.716C1034.9 546.072 1014.18 544.375 993.779 542.852L991.628 542.693C942.051 538.988 890.789 535.152 840.367 539.617C797.055 543.453 753.558 550.527 711.494 557.367C704.816 558.453 698.132 559.539 691.454 560.616C686.277 561.447 681.077 562.298 675.86 563.149C631.88 570.32 586.399 577.74 541.649 577.889C541.401 577.88 541.142 577.88 540.889 577.88Z" fill="#6AD6CF" fill-opacity="0.15"/>
<path d="M542.828 560.034C493.527 560.034 444.86 549.782 397.774 539.867C359.707 531.85 320.34 523.559 280.939 520.757C230.408 517.167 178.456 522.776 128.218 528.198C123.334 528.726 118.468 529.25 113.613 529.764C106.907 530.476 100.206 531.201 93.4987 531.922C39.0675 537.791 -17.2158 543.856 -73.1195 544.092L-73.131 542.169C-17.3711 541.934 38.8374 535.873 93.2053 530.014C99.9122 529.293 106.619 528.568 113.326 527.856C118.181 527.342 123.047 526.813 127.924 526.289C178.283 520.854 230.362 515.23 281.14 518.84C320.731 521.656 360.184 529.966 398.343 538.002C445.676 547.975 494.626 558.261 544.053 558.112C601.918 557.91 660.249 549.72 716.659 541.804C756.975 536.142 798.665 530.293 839.844 527.404C885.682 524.189 932.491 525.434 977.76 526.64C984.058 526.808 990.356 526.977 996.643 527.131C1017.88 527.659 1039.47 528.26 1060.35 528.842C1097.98 529.894 1136.88 530.98 1175.16 531.658C1238.01 532.768 1301.84 531.365 1363.57 530.005C1411.68 528.942 1461.42 527.856 1510.41 527.952L1510.4 529.875C1461.43 529.779 1411.72 530.87 1363.63 531.927C1301.87 533.287 1238.02 534.696 1175.11 533.581C1136.82 532.903 1097.9 531.817 1060.27 530.764C1039.39 530.183 1017.8 529.577 996.569 529.053C990.276 528.899 983.977 528.731 977.679 528.563C932.474 527.361 885.733 526.116 840.028 529.322C798.941 532.206 757.303 538.05 717.033 543.702C660.537 551.633 602.114 559.837 544.059 560.039C543.65 560.034 543.236 560.034 542.828 560.034Z" fill="#6AD6CF" fill-opacity="0.15"/>
<path d="M547.872 541.679C547.792 541.679 547.705 541.679 547.625 541.679C497.669 541.665 447.833 534.157 399.637 526.895C359.523 520.854 318.045 514.601 276.74 512.717C212.789 509.794 147.953 515.379 85.2561 520.786C33.4076 525.256 -20.2126 529.885 -73.1253 529.678L-73.1137 527.755C-20.3104 527.962 33.235 523.338 85.0203 518.873C147.809 513.462 212.738 507.867 276.867 510.799C318.316 512.693 359.868 518.955 400.052 525.006C448.15 532.254 497.882 539.747 547.631 539.761C547.711 539.761 547.797 539.761 547.878 539.761C604.42 539.761 661.561 533.667 716.837 527.77C757.061 523.478 798.654 519.042 839.7 516.985C876.524 515.139 914.079 514.62 950.403 514.12C966.422 513.899 982.988 513.668 999.255 513.332C1021.31 512.87 1043.37 512.404 1065.43 511.933C1104.54 511.102 1144.98 510.246 1184.76 509.444C1253.01 508.069 1322.02 510.833 1388.75 513.5C1428.59 515.096 1469.79 516.739 1510.43 517.494L1510.38 519.417C1469.71 518.662 1428.49 517.013 1388.64 515.418C1321.94 512.75 1252.98 509.991 1184.81 511.361C1145.03 512.164 1104.59 513.019 1065.48 513.851C1043.42 514.317 1021.37 514.788 999.312 515.249C983.034 515.591 966.468 515.817 950.443 516.038C914.148 516.538 876.616 517.057 839.844 518.897C798.872 520.95 757.32 525.381 717.131 529.668C661.779 535.575 604.558 541.679 547.872 541.679Z" fill="#6AD6CF" fill-opacity="0.15"/>
<path d="M551.41 523.266C501.385 523.266 451.095 518.354 402.421 513.601C360.714 509.53 317.585 505.315 274.894 504.224C213.762 502.657 151.795 506.175 91.8651 509.573C37.8481 512.64 -18.0096 515.807 -73.131 515.254L-73.1022 513.332C-18.0729 513.889 37.7388 510.717 91.7098 507.656C151.692 504.253 213.716 500.73 274.963 502.301C317.752 503.397 360.932 507.612 402.692 511.693C452.648 516.571 504.312 521.603 555.563 521.334C608.711 521.041 662.533 517.191 714.582 513.471C756.388 510.482 799.614 507.391 842.277 506.156C921.131 503.873 1001.06 499.067 1078.34 494.424C1116.7 492.117 1156.36 489.733 1195.43 487.686L1202.35 487.32C1230.8 485.811 1260.22 484.249 1289.25 485.792C1311.71 486.989 1334.99 489.099 1360.43 492.252C1365.29 492.852 1370.14 493.458 1374.98 494.064C1419.1 499.576 1464.73 505.277 1510.45 506.728L1510.36 508.651C1464.51 507.189 1418.82 501.484 1374.64 495.962C1369.8 495.356 1364.95 494.751 1360.1 494.15C1334.72 491.007 1311.5 488.902 1289.1 487.705C1260.22 486.167 1230.87 487.724 1202.49 489.233L1195.57 489.599C1156.51 491.646 1116.85 494.03 1078.5 496.337C1001.19 500.985 921.24 505.791 842.346 508.074C799.747 509.309 756.549 512.395 714.772 515.384C662.676 519.109 608.809 522.959 555.568 523.257C554.182 523.262 552.796 523.266 551.41 523.266Z" fill="#6AD6CF" fill-opacity="0.15"/>
<path d="M558.134 505.267C508.414 505.267 458.089 502.585 409.404 499.99C364.314 497.587 317.683 495.102 271.713 494.756C216.206 494.342 159.819 496.13 105.29 497.856C46.827 499.711 -13.6208 501.624 -73.1425 500.836L-73.108 498.913C-13.6496 499.706 46.7694 497.788 105.198 495.938C159.756 494.208 216.172 492.42 271.73 492.833C317.769 493.174 364.429 495.664 409.548 498.067C458.63 500.682 509.391 503.392 559.457 503.34C610.65 503.292 662.613 501.129 712.868 499.038C755.255 497.274 799.079 495.448 842.26 494.9C923.351 493.866 1005.1 485.758 1084.17 477.915C1123.11 474.05 1163.38 470.056 1203.09 466.956L1207.56 466.605C1237.08 464.289 1267.61 461.891 1297.74 464.145C1319.86 465.798 1342.33 468.941 1366.42 473.752C1370.78 474.622 1375.13 475.502 1379.47 476.372C1423.56 485.254 1465.21 493.641 1510.45 495.385L1510.34 497.308C1464.88 495.553 1423.13 487.143 1378.93 478.241C1374.59 477.367 1370.24 476.492 1365.88 475.622C1341.9 470.835 1319.54 467.706 1297.54 466.058C1267.61 463.818 1237.19 466.207 1207.78 468.518L1203.31 468.869C1163.62 471.969 1123.37 475.963 1084.44 479.823C1005.32 487.671 923.501 495.789 842.288 496.822C799.154 497.37 755.341 499.192 712.978 500.956C662.694 503.046 610.701 505.214 559.457 505.262C559.02 505.262 558.577 505.267 558.134 505.267Z" fill="#6AD6CF" fill-opacity="0.15"/>
<path d="M554.251 488.056C508.212 488.056 461.529 487.032 416.33 486.042C367.495 484.97 316.993 483.865 267.318 484.047C223.977 484.206 179.877 484.802 137.231 485.374C68.2647 486.301 -3.04862 487.258 -73.1425 486.422L-73.108 484.499C-3.05438 485.335 68.2474 484.379 137.197 483.451C179.848 482.879 223.954 482.288 267.313 482.125C317.027 481.942 367.541 483.048 416.393 484.119C463.076 485.143 511.353 486.205 558.847 486.133C606.41 486.061 654.756 485.268 701.508 484.504C746.811 483.764 793.661 482.995 839.752 482.884C922.868 482.682 1006.15 472.123 1086.7 461.915C1126.09 456.921 1166.82 451.759 1207.08 447.861L1209.12 447.664C1239.91 444.679 1271.74 441.599 1303.09 444.208C1324.92 446.025 1347.57 450.024 1370.43 456.094C1375.17 457.349 1379.86 458.613 1384.53 459.862C1426.21 471.056 1465.58 481.625 1510.45 483.23L1510.35 485.153C1465.17 483.533 1425.66 472.926 1383.83 461.693C1379.16 460.439 1374.47 459.18 1369.74 457.925C1347.03 451.898 1324.54 447.928 1302.87 446.121C1271.77 443.531 1240.06 446.602 1209.39 449.572L1207.35 449.769C1167.13 453.662 1126.42 458.824 1087.05 463.818C1006.42 474.041 923.052 484.61 839.769 484.812C793.696 484.922 746.857 485.691 701.56 486.431C654.796 487.195 606.439 487.988 558.859 488.061C557.317 488.056 555.781 488.056 554.251 488.056Z" fill="#6AD6CF" fill-opacity="0.15"/>
<path d="M174.895 472.503C92.2505 472.503 9.20314 472.383 -73.131 471.998L-73.1195 470.076C81.9429 470.797 239.634 470.59 392.131 470.393C447.356 470.321 504.456 470.244 560.613 470.215C598.962 470.196 637.949 470.109 675.659 470.023C729.457 469.903 785.085 469.778 839.798 469.845C840.16 469.845 840.523 469.845 840.885 469.845C923.794 469.845 1006.26 458.074 1086.02 446.684C1126.69 440.878 1168.74 434.875 1210.45 430.482C1262.16 425.031 1317.65 422.383 1373.01 439.772C1381.2 442.344 1389.38 445.218 1397.3 447.996C1408.17 451.812 1419.4 455.753 1430.76 458.954C1454.91 465.764 1480.97 469.364 1510.44 469.97L1510.38 471.892C1480.68 471.282 1454.4 467.648 1430.02 460.775C1418.59 457.555 1407.32 453.595 1396.41 449.769C1388.51 446.996 1380.35 444.131 1372.2 441.575C1317.31 424.335 1262.16 426.968 1210.74 432.39C1169.08 436.778 1127.05 442.781 1086.41 448.582C1006.56 459.982 923.99 471.767 840.885 471.767C840.517 471.767 840.16 471.767 839.792 471.767C785.085 471.695 729.457 471.825 675.664 471.945C637.954 472.032 598.967 472.118 560.619 472.137C504.462 472.166 447.362 472.243 392.137 472.315C320.599 472.407 247.905 472.503 174.895 472.503Z" fill="#6AD6CF" fill-opacity="0.15"/>
<path d="M359.362 459.872C327.985 459.872 296.527 459.463 265.311 458.295C190.702 455.508 114.913 456.238 41.6214 456.945C4.02634 457.305 -34.8514 457.685 -73.131 457.579L-73.1253 455.657C-34.8629 455.758 4.00333 455.388 41.5927 455.022C114.919 454.316 190.736 453.585 265.415 456.378C333.789 458.935 403.371 457.848 470.663 456.801C500.763 456.33 531.887 455.844 562.494 455.695C615.194 455.431 668.768 455.638 720.582 455.835C759.862 455.984 800.477 456.142 840.425 456.089C896.587 456.017 950.765 452.235 1006.04 444.516C1030.22 441.142 1054.75 437.355 1078.47 433.692C1121.39 427.069 1165.78 420.216 1209.82 415.529C1242.45 412.055 1268.68 410.872 1292.36 411.814C1321.98 412.987 1348.37 417.505 1373.04 425.618C1380.93 428.213 1388.81 431.097 1396.44 433.889C1407.67 437.999 1419.28 442.252 1431.07 445.631C1454.65 452.384 1480 455.671 1508.51 455.671C1509.14 455.671 1509.76 455.671 1510.39 455.666L1510.41 457.589C1509.77 457.594 1509.14 457.594 1508.51 457.594C1479.74 457.594 1454.15 454.273 1430.33 447.448C1418.45 444.045 1406.79 439.777 1395.51 435.648C1387.91 432.866 1380.04 429.987 1372.2 427.406C1317.09 409.281 1259.34 412.194 1210.11 417.438C1166.13 422.119 1121.78 428.968 1078.89 435.586C1055.16 439.248 1030.62 443.036 1006.43 446.414C951.018 454.148 896.725 457.945 840.431 458.012C800.477 458.065 759.856 457.906 720.576 457.757C668.768 457.56 615.199 457.353 562.511 457.618C531.922 457.772 500.804 458.257 470.709 458.723C434.086 459.29 396.779 459.872 359.362 459.872Z" fill="#6AD6CF" fill-opacity="0.15"/>
<path d="M367.121 448.832C333.627 448.832 300.076 447.707 266.87 444.42C211.334 438.926 159.601 436.884 108.713 438.181C87.3901 438.724 65.7281 439.546 44.7735 440.344C6.15458 441.81 -33.7873 443.324 -73.1368 443.161L-73.1253 441.238C-33.8218 441.411 6.0798 439.892 44.67 438.426C65.6303 437.629 87.3096 436.807 108.644 436.264C159.647 434.961 211.49 437.009 267.14 442.512C337.033 449.428 408.588 446.751 477.79 444.16C509.909 442.959 543.121 441.714 575.712 441.45C626.082 441.041 677.281 441.733 726.794 442.401C766.489 442.939 807.541 443.492 847.908 443.473C903.645 443.449 957.38 439.44 1012.2 431.222C1034.77 427.838 1057.67 424.046 1079.81 420.379C1121.9 413.405 1165.44 406.201 1208.73 401.457C1240.52 397.972 1266.72 396.92 1291.19 398.131C1320.33 399.578 1346.64 404.292 1371.64 412.554C1378.98 414.982 1386.36 417.635 1393.49 420.201C1405.77 424.618 1418.47 429.189 1431.39 432.731C1455.73 439.412 1481.56 442.194 1510.36 441.248L1510.45 443.17C1481.38 444.131 1455.28 441.315 1430.67 434.562C1417.66 430.991 1404.91 426.406 1392.59 421.97C1385.47 419.408 1378.12 416.765 1370.8 414.347C1312.99 395.242 1253.98 398.443 1209.03 403.37C1165.82 408.104 1122.32 415.308 1080.27 422.273C1058.11 425.94 1035.21 429.737 1012.61 433.125C957.662 441.368 903.789 445.381 847.92 445.405C847.333 445.405 846.746 445.405 846.154 445.405C806.333 445.405 765.89 444.857 726.765 444.328C677.269 443.66 626.088 442.968 575.741 443.377C543.196 443.641 510.001 444.886 477.899 446.088C441.437 447.443 404.32 448.832 367.121 448.832Z" fill="#6AD6CF" fill-opacity="0.15"/>
<path d="M376.422 437.422C339.679 437.422 302.958 435.471 266.864 429.631C262.705 428.958 258.57 428.271 254.457 427.588C233.169 424.046 213.066 420.706 191.513 419.6C167.815 418.384 142.678 418.495 110.007 419.97C88.575 420.936 66.8152 422.35 45.7686 423.719C6.86207 426.252 -33.3617 428.876 -73.1368 428.747L-73.131 426.824C-33.4652 426.954 6.72978 424.33 45.5903 421.802C66.6484 420.432 88.4197 419.014 109.88 418.048C142.644 416.572 167.861 416.457 191.651 417.683C213.353 418.798 233.537 422.152 254.9 425.704C259.013 426.387 263.142 427.074 267.295 427.747C340.173 439.537 415.778 435.408 488.885 431.419C522.719 429.573 557.708 427.665 591.841 427.377C640.819 426.964 690.568 428.333 738.672 429.66C777.4 430.727 817.44 431.827 856.841 431.991C911.335 432.226 963.828 428.059 1017.29 419.264C1038.82 415.722 1060.65 411.742 1081.75 407.892C1121.86 400.577 1163.33 393.017 1204.69 388.115C1235.35 384.486 1262.45 383.4 1287.55 384.803C1316.3 386.408 1342.73 391.234 1368.35 399.549C1375.42 401.846 1382.53 404.326 1389.41 406.729C1402.79 411.396 1416.62 416.226 1430.7 419.865C1455.72 426.339 1481.76 428.617 1510.29 426.819L1510.46 428.737C1481.63 430.549 1455.32 428.252 1430.01 421.705C1415.83 418.038 1401.95 413.194 1388.52 408.508C1381.65 406.109 1374.56 403.634 1367.51 401.346C1319.79 385.856 1269.67 382.362 1205 390.023C1163.73 394.911 1122.3 402.466 1082.23 409.776C1061.11 413.626 1039.28 417.611 1017.72 421.153C964.11 429.967 911.462 434.149 856.812 433.913C817.382 433.745 777.32 432.645 738.58 431.578C690.499 430.256 640.779 428.886 591.846 429.299C557.777 429.588 522.822 431.491 489.018 433.337C451.923 435.36 414.167 437.422 376.422 437.422Z" fill="#6AD6CF" fill-opacity="0.15"/>
<path d="M387.087 425.709C346.644 425.709 306.398 422.873 267.221 414.213C262.331 413.131 257.46 412.006 252.743 410.92C232.622 406.277 213.612 401.889 192.479 400.467C169.12 398.9 144.082 399.174 111.29 401.356C89.7599 402.788 67.9311 404.84 46.8212 406.821C7.63284 410.502 -32.8843 414.304 -73.1253 414.323V412.401C-33.0108 412.381 7.43728 408.584 46.5566 404.912C67.6837 402.927 89.5356 400.875 111.1 399.443C144.019 397.251 169.172 396.977 192.657 398.554C214.015 399.986 233.123 404.398 253.353 409.07C258.058 410.156 262.93 411.281 267.802 412.357C344.309 429.271 425.176 423.839 503.381 418.581C539.503 416.154 576.862 413.645 613.014 413.424C660.232 413.141 708.117 415.323 754.421 417.433C791.889 419.144 830.635 420.908 868.794 421.355C921.01 421.97 971.662 417.606 1023.65 408.022C1043.91 404.288 1064.41 400.087 1084.25 396.021C1121.92 388.297 1160.89 380.314 1199.89 375.186C1261.36 367.106 1313.53 370.774 1364.06 386.721C1367.04 387.658 1369.99 388.6 1372.93 389.532C1417.65 403.725 1459.89 417.135 1510.26 412.396L1510.52 414.304C1503.37 414.977 1496.38 415.289 1489.53 415.289C1447.6 415.289 1410.78 403.6 1372.12 391.325C1369.18 390.393 1366.23 389.456 1363.25 388.518C1313.1 372.691 1261.3 369.058 1200.24 377.084C1161.33 382.198 1122.42 390.172 1084.79 397.886C1064.94 401.952 1044.42 406.157 1024.14 409.897C971.973 419.509 921.143 423.883 868.753 423.272C830.549 422.825 791.78 421.057 754.289 419.346C708.019 417.236 660.169 415.054 613.025 415.337C576.954 415.553 539.641 418.062 503.559 420.485C465.112 423.085 426.01 425.709 387.087 425.709Z" fill="#6AD6CF" fill-opacity="0.15"/>
<path d="M896.72 413.376C892.043 413.376 887.361 413.328 882.667 413.222C845.883 412.429 808.633 409.911 772.614 407.479C728.405 404.489 682.682 401.418 637.529 401.486C600.791 401.553 563.495 404.158 527.43 406.681C507.01 408.109 485.894 409.584 465.112 410.584C399.2 413.751 329.676 415.414 267.802 398.386C262.015 396.795 256.338 395.117 250.845 393.498C231.955 387.927 214.112 382.664 193.405 380.968C163.903 378.55 134.689 380.516 112.532 382.491C90.9103 384.423 69.0182 387.134 47.8508 389.754C8.42086 394.637 -32.3666 399.688 -73.1195 399.904L-73.1368 397.982C-32.5449 397.766 8.15628 392.729 47.5172 387.85C68.7076 385.226 90.6169 382.515 112.29 380.578C134.556 378.589 163.926 376.618 193.635 379.05C214.619 380.766 232.588 386.067 251.615 391.681C257.097 393.296 262.763 394.968 268.526 396.554C330.021 413.482 399.298 411.814 464.986 408.656C485.733 407.662 506.832 406.186 527.24 404.759C563.351 402.235 600.693 399.626 637.523 399.558C682.768 399.496 728.543 402.567 772.799 405.561C808.789 407.993 846.01 410.507 882.725 411.3C932.319 412.367 980.768 407.782 1030.84 397.275C1049.66 393.329 1068.68 388.874 1087.08 384.572C1122.03 376.392 1158.17 367.938 1194.55 362.545C1223.5 358.253 1250.73 357.066 1277.81 358.912C1305.29 360.781 1331.88 365.727 1359.09 374.027C1361.97 374.907 1364.83 375.787 1367.68 376.661C1414.37 390.984 1458.46 404.504 1510.23 397.996L1510.57 399.895C1458.22 406.484 1413.86 392.873 1366.89 378.464C1364.04 377.589 1361.18 376.709 1358.3 375.835C1305.45 359.71 1252.02 355.985 1194.95 364.439C1158.68 369.812 1122.6 378.257 1087.7 386.423C1069.29 390.734 1050.25 395.189 1031.4 399.14C985.864 408.695 941.66 413.376 896.72 413.376Z" fill="#6AD6CF" fill-opacity="0.15"/>
<path d="M914.775 403.73C909.052 403.73 903.323 403.634 897.571 403.447C862.305 402.288 826.706 398.972 792.281 395.766C750.262 391.854 706.812 387.807 663.7 387.658C624.719 387.533 585.128 390.551 546.837 393.478C525.048 395.146 502.518 396.867 480.361 397.987C447.874 399.63 410.129 401.236 373.276 399.534C332.696 397.66 298.431 392.037 268.526 382.342C261.894 380.194 255.492 377.892 249.303 375.671C231.506 369.274 214.699 363.237 194.337 361.277C165.272 358.479 136.023 360.993 113.786 363.497C92.0722 365.939 70.1398 369.322 48.9265 372.59C9.23765 378.709 -31.8029 385.034 -73.108 385.486L-73.1368 383.563C-32.0272 383.116 8.91554 376.805 48.5123 370.702C69.7545 367.429 91.7156 364.04 113.487 361.594C135.856 359.075 165.289 356.547 194.607 359.368C215.303 361.358 232.26 367.453 250.218 373.907C256.384 376.123 262.763 378.416 269.36 380.554C333.829 401.447 408.881 399.678 480.229 396.074C502.351 394.954 524.864 393.233 546.636 391.57C584.978 388.638 624.627 385.615 663.718 385.74C706.95 385.885 750.463 389.941 792.545 393.858C826.931 397.059 862.484 400.371 897.674 401.529C945.462 403.1 990.195 398.414 1038.45 386.774C1055.75 382.602 1073.21 377.882 1090.09 373.326C1122.15 364.665 1155.3 355.711 1188.94 350.044C1217.04 345.31 1244.31 344.022 1272.31 346.108C1298.94 348.093 1325.59 353.091 1353.77 361.397C1356.62 362.233 1359.45 363.074 1362.28 363.91C1411.02 378.348 1457.06 391.979 1510.2 383.592L1510.62 385.481C1499.18 387.288 1488.08 388.086 1477.21 388.086C1437.03 388.086 1400.11 377.152 1361.51 365.717C1358.69 364.881 1355.86 364.045 1353.01 363.204C1296.56 346.574 1243.04 342.888 1189.4 351.928C1155.88 357.576 1122.8 366.515 1090.8 375.157C1073.9 379.723 1056.43 384.443 1039.09 388.624C997.046 398.751 956.213 403.73 914.775 403.73Z" fill="#6AD6CF" fill-opacity="0.15"/>
<path d="M932.031 394.089C924.554 394.089 916.995 393.897 909.334 393.522C876.593 391.907 843.698 387.903 811.889 384.029C771.355 379.098 729.434 373.994 687.548 373.811C646.876 373.633 605.565 377.027 565.617 380.309C541.706 382.275 516.984 384.303 492.67 385.543C417.733 389.369 338.948 391.109 271.69 367.222C264.299 364.598 257.258 361.267 250.448 358.052C242.234 354.173 233.744 350.16 224.69 347.425C215.476 344.642 205.26 342.643 194.331 341.48C166.716 338.543 139.055 341.331 118.037 344.085C95.2186 347.074 72.2393 351.313 50.0078 355.408C10.0774 362.766 -31.2104 370.375 -73.1022 371.062L-73.1483 369.14C-31.4865 368.457 9.6863 360.868 49.5074 353.529C71.7676 349.424 94.7872 345.185 117.674 342.181C138.842 339.408 166.716 336.601 194.613 339.567C205.709 340.749 216.091 342.782 225.467 345.608C234.699 348.396 243.281 352.452 251.575 356.369C258.328 359.561 265.311 362.863 272.582 365.444C339.379 389.167 417.866 387.427 492.521 383.616C516.794 382.376 541.499 380.348 565.387 378.387C605.392 375.099 646.761 371.711 687.56 371.879C729.607 372.062 771.608 377.176 812.223 382.116C843.985 385.981 876.829 389.979 909.472 391.59C956.46 393.911 999.519 389.129 1044.98 376.536C1061.13 372.062 1077.38 366.957 1093.09 362.026C1122.67 352.736 1153.25 343.133 1184.69 337.255C1235.57 327.739 1287.81 331.439 1349.09 348.915C1351.76 349.679 1354.43 350.443 1357.09 351.207C1407.85 365.751 1455.8 379.492 1510.15 369.164L1510.66 371.038C1497.25 373.585 1484.22 374.691 1471.48 374.691C1431.96 374.691 1394.97 364.093 1356.35 353.024C1353.69 352.26 1351.02 351.496 1348.34 350.736C1287.49 333.386 1235.64 329.699 1185.19 339.134C1153.91 344.983 1123.41 354.567 1093.9 363.829C1078.17 368.769 1061.9 373.878 1045.7 378.363C1007.37 388.989 970.725 394.089 932.031 394.089Z" fill="#6AD6CF" fill-opacity="0.15"/>
<path d="M947.544 384.188C939.595 384.188 931.536 383.933 923.328 383.424C891.899 381.477 860.545 376.719 830.226 372.115C791.832 366.289 752.137 360.262 712.069 359.936C669.285 359.585 625.795 363.425 583.736 367.14C558.502 369.37 532.411 371.672 506.768 373.047C481.235 374.412 455.294 375.532 429.542 375.532C374.409 375.532 320.122 370.399 272.386 351.534C263.62 348.069 255.504 344.085 247.652 340.23C231.127 332.112 215.51 324.446 195.269 321.961C168.188 318.64 140.441 321.918 119.296 325.148C96.392 328.647 73.3782 333.554 51.1237 338.303C10.9517 346.882 -30.595 355.745 -73.0965 356.648L-73.154 354.726C-30.9113 353.827 10.5031 344.988 50.5543 336.443C72.849 331.684 95.903 326.768 118.882 323.259C140.205 320.005 168.194 316.699 195.602 320.063C216.287 322.601 232.087 330.363 248.814 338.577C256.62 342.412 264.696 346.372 273.364 349.799C342.9 377.277 426.718 375.402 506.619 371.129C532.215 369.76 558.283 367.457 583.489 365.232C625.611 361.512 669.17 357.667 712.086 358.018C752.35 358.349 792.148 364.391 830.635 370.231C860.896 374.821 892.187 379.569 923.495 381.511C968.971 384.332 1009.88 379.343 1052.23 365.823C1066.93 361.132 1081.64 355.764 1095.87 350.578C1122.64 340.816 1150.32 330.718 1179.23 324.61C1205.77 319.001 1233.03 317.597 1262.58 320.318C1287.26 322.591 1313.17 327.647 1344.13 336.231C1346.88 336.995 1349.63 337.76 1352.37 338.524C1405.03 353.202 1454.76 367.073 1510.1 354.764L1510.69 356.624C1454.69 369.077 1404.63 355.125 1351.64 340.35C1348.9 339.586 1346.15 338.822 1343.4 338.058C1299.42 325.864 1241.08 313.522 1179.79 326.479C1151.06 332.55 1123.46 342.614 1096.78 352.346C1082.53 357.542 1067.8 362.915 1053.05 367.626C1018.02 378.8 983.966 384.188 947.544 384.188Z" fill="#6AD6CF" fill-opacity="0.15"/>
<path d="M960.676 373.715C952.399 373.715 943.961 373.398 935.31 372.768C904.98 370.557 875.006 365.117 846.016 359.854C809.531 353.231 771.803 346.382 733.236 345.983C688.716 345.522 643.424 349.852 599.623 354.043C573.187 356.571 545.853 359.186 519.015 360.714C434.052 365.549 345.057 367.64 272.835 336.265C263.672 332.285 255.331 327.59 247.273 323.048C231.386 314.098 216.379 305.649 196.241 302.828C169.569 299.093 141.793 302.818 120.573 306.48C97.5884 310.45 74.5401 316.002 52.2511 321.37C11.8318 331.103 -29.968 341.172 -73.0965 342.234L-73.1655 340.312C-30.3246 339.254 11.3314 329.224 51.6126 319.52C73.9419 314.142 97.0362 308.581 120.102 304.596C141.516 300.9 169.563 297.137 196.615 300.929C217.247 303.818 232.456 312.383 248.555 321.452C256.568 325.96 264.845 330.627 273.893 334.559C345.586 365.708 434.219 363.612 518.853 358.796C545.646 357.273 572.951 354.663 599.358 352.135C643.229 347.939 688.595 343.599 733.259 344.065C772.057 344.469 809.899 351.337 846.499 357.979C875.42 363.228 905.319 368.659 935.505 370.86C980.193 374.119 1019.32 368.957 1058.64 354.615C1072.04 349.727 1085.37 344.123 1098.26 338.702C1122.51 328.507 1147.58 317.967 1174.32 311.681C1200.28 305.582 1227.64 304.082 1257.96 307.096C1281.98 309.484 1307.23 314.516 1339.85 323.413C1342.55 324.148 1345.24 324.884 1347.93 325.624C1402.44 340.571 1453.92 354.687 1510.06 340.355L1510.73 342.196C1485.2 348.713 1458.05 349.886 1427.72 345.776C1400.68 342.114 1373.5 334.66 1347.21 327.455C1344.52 326.72 1341.83 325.979 1339.14 325.244C1290.16 311.883 1232.34 300.04 1174.94 313.531C1148.41 319.765 1123.44 330.267 1099.29 340.417C1086.37 345.848 1073.02 351.467 1059.55 356.374C1027.49 368.068 995.551 373.715 960.676 373.715Z" fill="#6AD6CF" fill-opacity="0.15"/>
<path d="M970.144 362.348C962.373 362.348 954.452 362.041 946.354 361.435C913.774 358.984 881.862 351.654 853.706 345.185C815.501 336.409 780.61 332.059 747.041 331.896C701.859 331.66 655.883 336.467 611.397 341.105C583.069 344.061 553.774 347.112 525.043 348.833C485.653 351.188 439.873 353.438 395.082 350.28C345.224 346.766 304.689 337.115 271.172 320.774C262.084 316.343 254.043 311.176 246.26 306.178C231.104 296.44 216.787 287.246 196.35 284.117C170.115 280.099 142.368 284.271 121.12 288.351C98.3304 292.73 75.5064 298.8 53.4303 304.673C12.7406 315.497 -29.3353 326.691 -73.0965 327.82L-73.1655 325.898C-29.7264 324.773 12.1942 313.623 52.7343 302.842C74.8507 296.959 97.7264 290.875 120.602 286.477C142.063 282.353 170.115 278.143 196.764 282.223C217.753 285.434 232.283 294.768 247.664 304.654C255.389 309.614 263.373 314.747 272.334 319.116C344.671 354.38 436.755 352.188 524.876 346.92C553.549 345.204 582.81 342.152 611.11 339.206C655.665 334.559 701.75 329.748 747.047 329.983C780.823 330.151 815.91 334.52 854.31 343.344C882.374 349.79 914.183 357.1 946.555 359.537C989.528 362.771 1027.61 357.374 1062.99 343.037C1075.66 337.899 1088.14 331.949 1100.21 326.191C1121.12 316.218 1142.74 305.899 1166.21 299.435C1191.5 292.461 1218.65 290.404 1249.18 293.153C1279.43 295.873 1308.7 302.991 1330.82 308.884C1335.78 310.205 1340.83 311.575 1345.71 312.902C1398.85 327.325 1453.8 342.239 1510.02 325.965L1510.77 327.782C1453.83 344.267 1398.5 329.252 1345 314.733C1340.12 313.411 1335.07 312.041 1330.12 310.72C1277.96 296.82 1222.09 286.059 1166.92 301.266C1143.68 307.672 1122.16 317.939 1101.34 327.868C1089.24 333.641 1076.73 339.605 1063.99 344.772C1034.91 356.533 1004.02 362.343 970.144 362.348Z" fill="#6AD6CF" fill-opacity="0.15"/>
<path d="M976.425 349.823C968.349 349.823 960.003 349.487 951.312 348.819C921.235 346.497 893.913 339.937 861.322 331.593C824.768 322.24 790.474 317.689 756.469 317.679C756.44 317.679 756.405 317.679 756.371 317.679C727.392 317.679 697.976 320.87 669.527 323.956C664.77 324.47 660.013 324.989 655.274 325.489L649.93 326.052C610.914 330.17 570.575 334.429 530.691 337.087C490.226 339.783 443.203 342.383 397.153 339.048C345.643 335.318 304.298 324.783 270.752 306.851C261.52 301.915 253.525 296.061 245.789 290.394C231.357 279.825 217.725 269.842 197.42 266.262C171.714 261.734 145.1 265.916 122.46 270.602C99.5958 275.336 76.7201 281.93 54.5979 288.303C13.6379 300.107 -28.7083 312.315 -73.085 313.392L-73.154 311.469C-29.1282 310.402 13.0512 298.243 53.8444 286.486C76.0126 280.099 98.9401 273.49 121.902 268.732C144.801 263.993 171.732 259.769 197.892 264.378C218.789 268.059 232.64 278.205 247.301 288.942C254.975 294.561 262.901 300.372 271.989 305.226C344.384 343.931 443.393 340.975 530.507 335.169C570.34 332.511 610.655 328.258 649.642 324.143L654.986 323.581C659.726 323.081 664.477 322.567 669.234 322.048C697.752 318.953 727.243 315.757 756.371 315.757C756.405 315.757 756.434 315.757 756.469 315.757C790.704 315.766 825.222 320.342 861.995 329.752C894.459 338.062 921.66 344.599 951.525 346.901C996.143 350.342 1032.68 345.012 1066.51 330.127C1078.45 324.879 1090.08 318.76 1101.34 312.849C1120.82 302.616 1140.96 292.038 1163.34 285.549C1188.4 278.287 1215.7 276.23 1246.78 279.272C1276.06 282.137 1304.68 289.13 1328.82 295.594C1333.86 296.945 1339.01 298.353 1343.98 299.713C1398.07 314.488 1454 329.767 1509.99 311.537L1510.82 313.329C1492.25 319.376 1473.73 321.798 1455.3 321.798C1417.41 321.798 1379.92 311.556 1343.27 301.544C1338.29 300.184 1333.15 298.781 1328.11 297.43C1274.47 283.064 1217.47 271.899 1164.1 287.371C1141.96 293.787 1121.93 304.308 1102.57 314.483C1091.28 320.414 1079.6 326.551 1067.58 331.833C1049.71 339.696 1031.21 344.844 1011.01 347.579C999.928 349.073 988.476 349.823 976.425 349.823Z" fill="#6AD6CF" fill-opacity="0.15"/>
<path d="M981.171 335.568C971.685 335.568 961.804 335.111 951.456 334.203C920.976 331.526 892.889 324.528 863.162 317.117L860.597 316.477C826.183 307.903 793.621 303.65 761.047 303.472C732.713 303.313 703.987 306.476 676.188 309.532C671.828 310.013 667.474 310.489 663.131 310.955L654.652 311.863C615.119 316.107 574.234 320.495 533.809 323.235C492.48 326.037 444.457 328.733 397.521 325.273C344.608 321.37 302.521 310.321 268.837 291.499C259.956 286.539 252.34 280.777 244.966 275.211C230.805 264.507 217.426 254.4 196.776 250.81C171.203 246.364 144.622 250.714 122 255.553C99.5786 260.35 77.1228 266.968 55.409 273.37C14.2189 285.511 -28.3804 298.07 -73.0965 298.968L-73.154 297.046C-28.8003 296.157 13.6207 283.651 54.6439 271.558C76.4038 265.142 98.9056 258.509 121.43 253.693C144.306 248.796 171.203 244.403 197.242 248.93C218.507 252.626 232.105 262.902 246.508 273.788C253.818 279.311 261.371 285.021 270.114 289.909C342.681 330.459 444.181 327.388 533.625 321.327C573.998 318.592 614.854 314.204 654.365 309.96L662.843 309.052C667.186 308.586 671.534 308.11 675.895 307.629C703.769 304.563 732.604 301.395 761.064 301.549C793.857 301.727 826.631 306.009 861.253 314.632L863.818 315.271C893.441 322.658 921.424 329.632 951.697 332.29C998.352 336.385 1035.48 331.252 1068.54 316.141C1080.12 310.845 1091.37 304.673 1102.24 298.704C1121.34 288.226 1141.08 277.398 1163.34 270.905C1219.52 254.515 1278.3 268.203 1328.99 282.319C1333.69 283.627 1338.49 284.992 1343.14 286.309C1397.85 301.823 1454.41 317.862 1509.93 297.137L1510.87 298.891C1491.6 306.086 1472.24 308.927 1452.92 308.927C1415.75 308.927 1378.67 298.411 1342.4 288.125C1337.76 286.808 1332.96 285.448 1328.26 284.141C1277.94 270.126 1219.6 256.529 1164.1 272.717C1142.11 279.133 1122.49 289.899 1103.51 300.309C1092.59 306.298 1081.31 312.493 1069.64 317.823C1043.5 329.772 1014.88 335.563 981.171 335.568Z" fill="#6AD6CF" fill-opacity="0.15"/>
<path d="M986.411 320.073C972.761 320.073 959.635 319.015 947.291 317.66C921.355 314.81 895.661 310.037 870.813 305.423C831.883 298.194 791.631 290.716 750.147 290.653C749.831 290.653 749.514 290.653 749.198 290.653C706.07 290.653 662.216 294.96 619.795 299.132C590.65 301.996 560.515 304.957 530.904 306.49C489.938 308.614 442.323 310.561 395.657 306.783C343.423 302.554 301.497 291.86 267.474 274.101C259.369 269.866 252.11 265.079 245.098 260.451C229.953 250.454 215.648 241.015 194.694 238.092C168.85 234.488 142.362 238.837 119.854 243.567C98.2959 248.099 76.6568 254.193 55.7368 260.086C14.3799 271.736 -28.3919 283.781 -73.1022 284.559L-73.1483 282.637C-28.7831 281.863 13.8105 269.866 55.0063 258.264C75.9724 252.357 97.6517 246.253 119.296 241.702C142.028 236.92 168.81 232.527 195.073 236.194C216.615 239.198 231.144 248.791 246.525 258.942C253.491 263.541 260.698 268.295 268.693 272.471C342.14 310.82 442.478 309.153 530.76 304.577C560.308 303.044 590.414 300.088 619.525 297.228C662.326 293.023 706.576 288.668 750.147 288.741C791.878 288.803 832.257 296.301 871.307 303.553C896.104 308.158 921.752 312.921 947.585 315.761C982.85 319.64 1024.54 321.043 1066.39 302.049C1078.55 296.532 1090.32 290.043 1101.7 283.766C1120.88 273.188 1140.72 262.249 1163.07 255.602C1219.55 238.799 1278.08 253.501 1328.51 268.607C1332.64 269.842 1336.78 271.102 1340.95 272.366C1396.58 289.264 1454.11 306.745 1509.87 282.747L1510.92 284.458C1485.54 295.383 1457.42 298.747 1424.95 294.758C1396.32 291.235 1367.77 282.565 1340.16 274.178C1336 272.914 1331.86 271.654 1327.73 270.419C1277.68 255.428 1219.61 240.822 1163.84 257.418C1141.75 263.988 1122.04 274.86 1102.96 285.376C1091.54 291.672 1079.73 298.185 1067.48 303.741C1039.77 316.314 1012.16 320.073 986.411 320.073Z" fill="#6AD6CF" fill-opacity="0.15"/>
<path d="M987.659 303.9C970.495 303.9 953.429 302.169 938.485 300.367C920.268 298.17 901.896 295.618 884.128 293.153C835.691 286.424 785.602 279.469 735.002 279.292C734.07 279.287 733.138 279.287 732.207 279.287C691.845 279.287 650.868 282.281 611.208 285.179C579.549 287.491 546.808 289.884 514.58 290.74C474.764 291.797 432.205 292.235 390.699 288.337C343.745 283.925 305.029 274.601 272.34 259.831C263.154 255.683 254.906 250.901 246.928 246.282C230.074 236.521 214.158 227.302 191.685 225.053C165.658 222.448 139.313 226.865 116.978 231.522C96.5933 235.776 76.0932 241.303 56.2603 246.643C14.679 257.851 -28.3229 269.434 -73.108 270.14L-73.154 268.218C-28.7083 267.521 14.1268 255.976 55.547 244.816C75.4144 239.462 95.9548 233.93 116.409 229.657C138.945 224.952 165.548 220.501 191.944 223.145C214.987 225.452 231.133 234.805 248.222 244.706C256.148 249.296 264.345 254.044 273.421 258.144C344.942 290.456 435.357 290.923 514.493 288.822C546.653 287.967 579.364 285.578 610.995 283.266C651.621 280.301 693.634 277.234 735.002 277.374C785.786 277.552 835.967 284.521 884.497 291.259C902.253 293.725 920.613 296.277 938.807 298.468C986.319 304.197 1021.14 304.361 1058.49 288.265C1072.42 282.262 1085.78 274.951 1098.7 267.877C1118.54 257.015 1139.05 245.782 1162.13 239.015C1187.71 231.517 1215.27 229.955 1246.37 234.238C1274.66 238.131 1302.3 246.316 1327.96 254.583C1331.34 255.674 1334.75 256.779 1338.16 257.889C1394.93 276.35 1453.63 295.441 1509.82 268.343L1510.97 270.006C1485.39 282.343 1456.82 286.265 1423.64 282.002C1394.44 278.249 1365.4 268.809 1337.33 259.677C1333.92 258.567 1330.52 257.462 1327.14 256.371C1274.76 239.496 1218.93 224.399 1162.9 240.822C1140.08 247.513 1119.68 258.678 1099.96 269.477C1087 276.576 1073.58 283.92 1059.55 289.966C1041.06 297.935 1021.64 302.381 1000.18 303.563C996.022 303.799 991.835 303.9 987.659 303.9Z" fill="#6AD6CF" fill-opacity="0.15"/>
<path d="M985.726 288.572C971.392 288.572 956.983 286.602 943 284.689C938.514 284.074 933.878 283.439 929.351 282.887C851.267 273.351 779.672 268.751 710.476 268.872C676.073 268.924 641.124 270.467 607.319 271.962C575.206 273.38 541.999 274.851 509.282 275.038C469.921 275.264 427.857 274.875 386.926 270.511C340.674 265.579 302.371 256.284 269.826 242.082C262.13 238.722 254.986 234.992 248.078 231.388C231.725 222.852 216.281 214.787 195.626 212.499C167.878 209.428 139.21 214.148 114.827 219.165C95.4256 223.159 75.8803 228.201 56.9735 233.079C15.1104 243.879 -28.1849 255.049 -73.1137 255.712L-73.154 253.79C-28.553 253.126 14.5813 242 56.2948 231.239C75.2304 226.355 94.8102 221.304 114.275 217.296C138.87 212.23 167.803 207.477 195.93 210.591C217.075 212.932 232.726 221.102 249.297 229.753C256.165 233.339 263.275 237.049 270.89 240.375C342.077 271.438 431.262 273.558 509.265 273.111C541.93 272.923 575.108 271.457 607.193 270.039C641.02 268.545 676.004 266.997 710.464 266.944C779.776 266.839 851.486 271.428 929.679 280.979C934.228 281.536 938.876 282.17 943.368 282.786C958.536 284.862 974.228 287.006 989.643 286.592C1009.61 286.054 1030.32 281.315 1051.21 272.495C1065.83 266.324 1079.86 258.745 1093.43 251.415C1112.39 241.173 1131.99 230.58 1153.61 223.611C1213.28 204.377 1271.5 221.121 1326.02 239.928C1328.97 240.942 1331.93 241.971 1334.9 243.004C1392.93 263.162 1452.94 284.006 1509.77 253.939L1511 255.563C1485.12 269.256 1456.02 273.668 1422.05 269.049C1392.21 264.993 1362.62 254.717 1334.01 244.778C1331.04 243.744 1328.08 242.716 1325.14 241.702C1271.05 223.044 1213.32 206.419 1154.44 225.404C1133.04 232.301 1113.54 242.841 1094.67 253.03C1081.06 260.389 1066.98 267.992 1052.25 274.211C1031.05 283.156 1010.02 287.967 989.712 288.51C988.395 288.553 987.061 288.572 985.726 288.572Z" fill="#6AD6CF" fill-opacity="0.15"/>
<path d="M978.076 271.88C963.247 271.88 948.332 269.593 933.895 267.377C927.027 266.324 919.929 265.233 912.986 264.416C852.234 257.269 790.359 257.952 730.533 258.61C716.636 258.764 702.273 258.923 688.112 258.98C666.548 259.072 644.609 259.37 623.396 259.663C580.049 260.254 535.229 260.869 491.158 259.72C418.82 257.836 335.894 253.391 267.152 224.351C261.181 221.828 255.544 219.218 250.097 216.69C232.473 208.519 215.821 200.801 193.497 199.143C165.381 197.057 136.875 201.8 112.693 206.717C94.3673 210.442 75.8746 215.008 57.9916 219.425C15.7489 229.854 -27.9318 240.644 -73.1022 241.298L-73.1425 239.376C-28.2827 238.722 15.2427 227.975 57.3416 217.579C75.2534 213.158 93.7748 208.582 112.152 204.848C136.518 199.897 165.261 195.12 193.704 197.23C216.517 198.921 233.37 206.736 251.213 215.008C256.643 217.526 262.257 220.127 268.187 222.631C336.509 251.492 419.137 255.914 491.227 257.793C535.241 258.942 580.037 258.327 623.356 257.735C644.575 257.447 666.519 257.144 688.095 257.053C702.244 256.995 716.607 256.837 730.498 256.683C790.417 256.024 852.377 255.342 913.303 262.508C920.291 263.33 927.418 264.426 934.303 265.483C949.057 267.747 964.334 270.092 979.353 269.953C998.208 269.78 1017.93 265.776 1037.95 258.053C1055.25 251.382 1071.62 242.687 1087.46 234.281C1106.94 223.933 1127.09 213.234 1149.22 206.16C1176.81 197.331 1205.91 195.514 1238.2 200.599C1267.42 205.203 1296.54 215.061 1323.65 225.029C1326.21 225.971 1328.78 226.918 1331.36 227.874C1387.96 248.796 1452.12 272.505 1509.74 239.553L1511.04 241.139C1484.8 256.149 1455.12 260.999 1420.3 255.972C1389.78 251.564 1359.61 240.414 1330.43 229.633C1327.85 228.682 1325.28 227.73 1322.73 226.793C1268.21 206.751 1209.97 188.785 1150.04 207.962C1128.14 214.969 1108.09 225.615 1088.69 235.91C1072.79 244.35 1056.35 253.078 1038.91 259.807C1018.59 267.646 998.565 271.707 979.382 271.885C978.95 271.875 978.507 271.88 978.076 271.88Z" fill="#6AD6CF" fill-opacity="0.15"/>
<path d="M968.666 255.034C967.302 255.034 965.945 255.015 964.587 254.977C951.53 254.597 938.485 252.343 925.871 250.161C918.295 248.849 910.461 247.493 902.748 246.571C848.443 240.068 793.385 243.048 740.139 245.931C714.479 247.32 687.939 248.757 661.739 249.128C605.036 249.925 543.495 248.407 478.837 244.605C411.441 240.644 333.909 234.185 266.737 207.525C261.67 205.516 256.729 203.204 251.949 200.969C243.689 197.105 235.147 193.115 225.916 190.674C215.263 187.862 203.322 186.194 190.431 185.723C163.236 184.729 136.248 189.165 113.435 193.639C95.2703 197.201 76.9214 201.536 59.1823 205.722C16.4967 215.801 -27.6269 226.221 -73.108 226.879L-73.1483 224.957C-27.9663 224.303 16.0078 213.917 58.5381 203.877C76.306 199.681 94.6721 195.346 112.889 191.77C135.856 187.266 163.035 182.796 190.512 183.806C203.604 184.286 215.74 185.983 226.589 188.843C236.045 191.342 244.696 195.384 253.053 199.291C257.799 201.512 262.711 203.805 267.71 205.79C334.525 232.306 411.797 238.736 478.986 242.687C543.581 246.484 605.053 248.003 661.687 247.205C687.836 246.835 714.341 245.403 739.978 244.014C793.345 241.125 848.524 238.136 903.064 244.667C910.847 245.6 918.715 246.96 926.331 248.277C938.853 250.444 951.801 252.684 964.662 253.054C985.346 253.655 1007.27 249.584 1029.79 240.957C1047.46 234.19 1064.27 225.442 1080.52 216.983C1101.06 206.294 1122.3 195.245 1145.56 188.026C1206.88 168.993 1263.94 187.694 1321.84 210.283C1323.8 211.048 1325.77 211.817 1327.75 212.59C1385.65 235.247 1451.28 260.932 1509.72 225.135L1511.08 226.687C1489.63 239.823 1467.31 244.864 1444.79 244.864C1404.79 244.864 1364.18 228.975 1326.77 214.335C1324.8 213.561 1322.83 212.792 1320.87 212.028C1263.43 189.617 1206.86 171.055 1146.36 189.828C1123.32 196.98 1102.19 207.981 1081.75 218.617C1065.44 227.11 1048.57 235.886 1030.76 242.706C1009.37 250.896 988.504 255.034 968.666 255.034Z" fill="#6AD6CF" fill-opacity="0.15"/>
<path d="M623.373 239.054C568.907 239.054 512.883 234.219 460.235 228.936C396.618 222.559 329.239 213.561 267.56 191.121C262.924 189.434 258.386 187.559 253.991 185.747C244.19 181.705 234.929 177.884 224.357 175.789C213.278 173.592 201.458 172.487 188.223 172.405C161.602 172.237 135.005 176.606 114.81 180.432C96.8176 183.839 78.6355 187.944 61.0517 191.909C17.7276 201.685 -27.0747 211.788 -73.1022 212.461L-73.1425 210.538C-27.3968 209.87 17.2617 199.796 60.4535 190.054C78.0603 186.084 96.2597 181.975 114.304 178.557C134.62 174.708 161.39 170.315 188.24 170.483C201.654 170.569 213.641 171.689 224.886 173.919C235.711 176.063 245.524 180.11 255.009 184.027C259.375 185.829 263.896 187.694 268.48 189.362C329.889 211.701 397.066 220.67 460.511 227.033C515.857 232.584 574.941 237.645 631.949 237.093C665.328 236.771 699.012 233.43 731.585 230.196C781.703 225.221 833.522 220.079 885.239 225.86C894.942 226.947 904.675 228.821 914.085 230.638C926.849 233.099 940.049 235.641 953.227 236.208C972.888 237.049 993.756 233.671 1015.25 226.163C1035.71 219.021 1054.94 209.178 1073.54 199.662C1093.12 189.645 1113.36 179.283 1135.15 171.997C1164.72 162.106 1193.95 159.323 1222.02 163.73C1254.6 168.844 1285.18 181.345 1312.15 192.38C1315.92 193.923 1319.73 195.499 1323.58 197.09C1382.96 221.645 1450.27 249.474 1509.69 210.75L1511.11 212.264C1489.31 226.471 1466.55 231.921 1443.54 231.921C1402.63 231.921 1360.95 214.691 1322.55 198.811C1318.72 197.225 1314.91 195.648 1311.13 194.106C1284.29 183.128 1253.86 170.685 1221.59 165.619C1193.95 161.284 1165.15 164.028 1136 173.78C1114.39 181.009 1094.23 191.323 1074.74 201.301C1056.06 210.855 1036.75 220.737 1016.13 227.937C994.314 235.555 973.106 238.986 953.101 238.126C939.722 237.554 926.423 234.988 913.561 232.512C904.203 230.71 894.522 228.84 884.922 227.769C833.494 222.02 781.818 227.144 731.844 232.104C699.207 235.343 665.46 238.693 631.961 239.015C629.108 239.039 626.243 239.054 623.373 239.054Z" fill="#6AD6CF" fill-opacity="0.15"/>
<path d="M599.669 228.066C547.959 228.066 495 220.276 443.692 212.73L441.115 212.35C390.981 204.977 325.517 193.836 263.821 172.953C261.187 172.059 258.57 171.141 256.039 170.257C244.759 166.301 234.101 162.567 221.774 160.933C210.454 159.433 198.461 158.871 185.099 159.207C158.514 159.88 132.037 164.307 111.951 168.089C95.788 171.132 79.4178 174.65 63.5941 178.048C19.3957 187.545 -26.3097 197.369 -73.1022 198.042L-73.1425 196.119C-26.6203 195.451 18.9528 185.656 63.0246 176.183C78.8656 172.78 95.2473 169.257 111.451 166.21C131.64 162.408 158.255 157.963 185.036 157.285C198.542 156.944 210.678 157.516 222.142 159.034C234.751 160.707 245.53 164.485 256.942 168.488C259.467 169.373 262.073 170.286 264.695 171.175C326.19 191.996 391.498 203.108 441.524 210.461L444.1 210.841C498.14 218.79 554.021 227.009 608.205 226.077C644.184 225.457 680.352 220.492 715.325 215.686C765.798 208.755 817.992 201.584 870.467 207.38C881.408 208.587 892.222 210.932 902.679 213.206C914.476 215.767 926.682 218.416 938.957 219.382C960.469 221.083 983.598 217.661 1007.7 209.221C1028.44 201.959 1048.03 192.082 1066.97 182.532C1087.57 172.146 1108.87 161.404 1131.8 153.935C1162.08 144.073 1191.66 141.636 1219.73 146.692C1251.86 152.479 1281.64 165.287 1310.44 177.678C1313.62 179.048 1316.83 180.437 1320.06 181.84C1380.73 208.14 1449.51 237.953 1509.68 196.345L1511.15 197.826C1483.76 216.767 1452.21 222.852 1414.7 216.445C1382 210.855 1349.97 196.975 1319 183.546C1315.77 182.143 1312.56 180.754 1309.39 179.389C1280.72 167.056 1251.08 154.305 1219.25 148.576C1191.63 143.606 1162.49 146.009 1132.63 155.732C1109.89 163.139 1088.68 173.838 1068.16 184.181C1049.15 193.769 1029.49 203.68 1008.6 210.995C984.139 219.559 960.642 223.025 938.744 221.295C926.285 220.309 913.993 217.642 902.103 215.066C891.71 212.811 880.965 210.48 870.168 209.288C818.026 203.531 766.005 210.677 715.698 217.584C680.646 222.4 644.397 227.379 608.251 227.999C605.392 228.042 602.528 228.066 599.669 228.066Z" fill="#6AD6CF" fill-opacity="0.15"/>
<path d="M583.052 215.892C535.816 215.892 487.476 206.703 440.701 197.816L434.207 196.581C374.185 185.204 316.228 171.367 261.94 155.463C236.603 148.038 214.176 145.087 189.229 145.894C160.843 146.812 133.159 151.354 109.823 155.675C95.5407 158.318 81.0629 161.274 67.0568 164.129C21.6792 173.386 -25.2398 182.96 -73.108 183.623L-73.1483 181.701C-25.5389 181.037 21.2536 171.497 66.5046 162.264C80.5164 159.404 95.0115 156.449 109.317 153.8C132.756 149.46 160.567 144.899 189.137 143.972C214.389 143.155 237.08 146.139 262.7 153.647C316.906 169.526 374.783 183.344 434.713 194.706L441.213 195.942C488.535 204.934 537.478 214.249 585.093 213.965C624.581 213.739 664.011 207.025 702.147 200.527C753.61 191.76 806.822 182.696 860.844 189.477C871.917 190.866 882.754 193.553 893.234 196.153C905.049 199.08 917.266 202.108 929.702 203.228C950.023 205.049 971.893 202.271 994.688 194.971C1018.25 187.425 1040.25 176.414 1061.53 165.768C1082.68 155.189 1104.54 144.25 1128.01 136.652C1156.93 127.284 1184.53 124.593 1210.04 128.649C1244.16 134.075 1275.49 148.182 1305.8 161.822L1308.28 162.937C1311.07 164.191 1313.88 165.47 1316.73 166.753C1348.08 180.941 1380.51 195.615 1413.55 201.502C1451.11 208.197 1482.55 201.8 1509.64 181.946L1511.16 183.392C1490.53 198.513 1467.44 205.996 1441.16 206.001C1432.18 206.001 1422.83 205.126 1413.07 203.386C1379.72 197.441 1347.14 182.7 1315.63 168.445C1312.8 167.162 1309.98 165.888 1307.19 164.634L1304.71 163.519C1274.56 149.946 1243.39 135.916 1209.61 130.543C1184.53 126.554 1157.36 129.216 1128.85 138.449C1105.56 145.99 1083.79 156.886 1062.72 167.421C1041.36 178.11 1019.27 189.16 995.522 196.768C972.381 204.179 950.156 207.001 929.466 205.146C916.817 204.011 904.502 200.959 892.59 198.003C882.184 195.422 871.428 192.755 860.511 191.385C806.891 184.656 753.88 193.687 702.613 202.42C664.368 208.933 624.823 215.671 585.116 215.897C584.426 215.892 583.736 215.892 583.052 215.892Z" fill="#6AD6CF" fill-opacity="0.15"/>
<path d="M568.395 201.973C522.011 201.973 475.075 190.885 429.634 180.153C426.977 179.523 424.331 178.899 421.696 178.279C396.399 172.324 370.866 165.758 346.178 159.409C319.823 152.632 292.57 145.62 265.558 139.348C210.65 126.592 154.942 134.811 107.039 143.51C95.3279 145.639 83.4327 147.932 71.9345 150.148C24.9234 159.207 -23.6926 168.58 -73.108 169.204L-73.1425 167.282C-23.9687 166.657 24.5207 157.309 71.4168 148.268C82.9208 146.048 94.8217 143.755 106.55 141.626C154.723 132.874 210.759 124.617 266.174 137.488C293.22 143.77 320.484 150.782 346.857 157.564C371.533 163.913 397.055 170.473 422.323 176.423C424.958 177.043 427.604 177.668 430.267 178.298C476.766 189.28 524.847 200.642 572.105 200.022C611.673 199.508 651.236 191.866 689.492 184.474C741.853 174.357 795.996 163.898 850.962 171.555C862.564 173.17 873.74 176.342 884.548 179.413C895.742 182.59 907.315 185.877 919.221 187.367C941.246 190.126 965.237 187.329 990.523 179.057C1014.08 171.353 1036.15 160.342 1057.49 149.686C1077.75 139.579 1098.68 129.13 1120.93 121.474C1152.42 110.635 1182.08 107.607 1209.07 112.476C1242.67 118.532 1273.39 132.956 1303.1 146.903L1307.53 148.98C1311.24 150.72 1314.97 152.483 1318.7 154.252C1347.76 168.008 1377.81 182.234 1410.35 189.093C1447.73 196.97 1481.13 189.717 1509.63 167.532L1511.2 168.94C1489.69 185.685 1465.43 194.101 1438.82 194.101C1429.43 194.101 1419.75 193.053 1409.79 190.953C1376.94 184.032 1346.76 169.743 1317.57 155.925C1313.84 154.156 1310.12 152.397 1306.4 150.657L1301.98 148.581C1272.41 134.7 1241.85 120.354 1208.59 114.355C1182.05 109.568 1152.86 112.563 1121.81 123.252C1099.72 130.855 1078.85 141.266 1058.67 151.34C1037.25 162.033 1015.09 173.088 991.363 180.85C965.692 189.246 941.309 192.077 918.882 189.27C906.774 187.756 895.098 184.44 883.806 181.234C873.085 178.192 862.001 175.044 850.583 173.453C796.071 165.859 742.152 176.279 690.01 186.348C651.638 193.76 611.955 201.425 572.14 201.945C570.892 201.964 569.644 201.973 568.395 201.973Z" fill="#6AD6CF" fill-opacity="0.15"/>
<path d="M562.845 185.945C515.483 185.945 468.552 173.319 423.117 161.096L420.546 160.404C408.818 157.251 396.911 153.916 385.396 150.691C345.96 139.651 305.19 128.236 263.735 121.82C212.232 113.851 158.933 121.839 104.312 131.475C95.8916 132.96 87.3383 134.513 79.0612 136.012C29.6745 144.971 -21.3918 154.233 -73.1137 154.776L-73.1425 152.854C-21.6506 152.31 29.2949 143.068 78.5723 134.133C86.8494 132.634 95.4084 131.081 103.835 129.591C158.692 119.911 212.237 111.89 264.149 119.926C305.759 126.366 346.615 137.805 386.12 148.864C397.63 152.089 409.531 155.42 421.248 158.568L423.819 159.26C470.565 171.833 518.905 184.844 567.464 183.974C606.008 183.287 644.811 175.227 682.337 167.426C735.267 156.429 789.997 145.053 845.078 154.108C856.795 156.035 867.902 159.698 878.647 163.245C889.328 166.768 900.372 170.416 911.876 172.276C933.993 175.856 958.151 173.65 983.678 165.72C1009.15 157.809 1032.8 145.913 1055.68 134.412C1076.6 123.896 1098.23 113.019 1121.27 105.161C1153.13 94.2894 1181.88 91.6603 1209.16 97.1299C1242.16 103.743 1272.23 118.412 1301.32 132.595C1303.39 133.604 1305.45 134.614 1307.51 135.613C1310.85 137.233 1314.19 138.872 1317.54 140.516C1346.95 154.93 1377.36 169.839 1410.54 176.784C1447.92 184.613 1481.25 176.659 1509.59 153.142L1511.21 154.507C1482.26 178.533 1448.2 186.656 1409.98 178.649C1376.48 171.632 1345.92 156.655 1316.37 142.174C1313.03 140.53 1309.68 138.896 1306.35 137.276C1304.29 136.272 1302.22 135.267 1300.15 134.258C1271.22 120.147 1241.29 105.55 1208.62 99.0043C1181.83 93.6357 1153.54 96.2311 1122.13 106.949C1099.26 114.754 1077.71 125.588 1056.87 136.07C1033.9 147.62 1010.15 159.558 984.484 167.532C958.559 175.587 933.981 177.822 911.445 174.174C899.728 172.276 888.581 168.599 877.807 165.042C867.16 161.529 856.157 157.895 844.641 156.006C790.06 147.038 735.583 158.357 682.9 169.305C645.254 177.13 606.324 185.219 567.521 185.911C565.957 185.93 564.404 185.945 562.845 185.945Z" fill="#6AD6CF" fill-opacity="0.15"/>
<path d="M568.027 168.378C567.699 168.378 567.377 168.378 567.044 168.378C509.713 168.166 455.254 151.974 402.582 136.31C357.441 122.887 310.758 109.006 262.487 105.257C208.987 101.1 154.66 110.438 102.115 119.469L101.908 119.503C97.8645 120.2 93.8151 120.897 89.7714 121.598C36.8588 130.745 -17.8543 140.203 -73.1253 140.367L-73.131 138.444C-18.0959 138.281 36.5021 128.841 89.3055 119.714C93.3549 119.013 97.3986 118.316 101.448 117.619L101.655 117.585C154.361 108.525 208.867 99.1581 262.705 103.34C311.264 107.112 358.079 121.031 403.359 134.494C455.846 150.1 510.122 166.244 567.061 166.45C567.383 166.45 567.711 166.45 568.033 166.45C606.531 166.45 645.582 158.126 683.355 150.071C736.705 138.694 791.878 126.933 846.579 138.324C857.433 140.583 867.683 144.385 877.6 148.066C889.236 152.382 901.269 156.848 914.171 158.736C935.212 161.812 958.312 159.505 982.833 151.887C1008.79 143.827 1032.87 131.682 1056.16 119.94C1076.76 109.554 1098.06 98.8169 1120.65 90.8817C1152.31 79.7649 1180.66 76.9148 1207.33 82.168C1240.29 88.6564 1270.19 103.484 1299.11 117.826C1301.02 118.777 1302.94 119.724 1304.84 120.666C1308.48 122.464 1312.13 124.285 1315.79 126.112C1344.78 140.583 1374.76 155.545 1407.49 162.951C1446.38 171.756 1480.73 163.605 1509.58 138.733L1511.23 140.069C1489.43 158.871 1464.54 168.315 1436.96 168.315C1427.26 168.315 1417.23 167.147 1406.88 164.807C1373.84 157.328 1343.73 142.299 1314.6 127.76C1310.94 125.934 1307.3 124.117 1303.66 122.319C1301.75 121.377 1299.84 120.426 1297.92 119.474C1269.15 105.209 1239.4 90.4588 1206.79 84.0376C1180.61 78.8805 1152.72 81.697 1121.53 92.6504C1099.09 100.528 1077.87 111.231 1057.34 121.579C1033.96 133.369 1009.78 145.558 983.627 153.685C958.72 161.423 935.212 163.759 913.769 160.625C900.591 158.698 888.425 154.185 876.662 149.821C866.838 146.178 856.68 142.405 846.021 140.189C791.878 128.918 736.992 140.622 683.919 151.936C646.007 160.02 606.807 168.373 568.027 168.378Z" fill="#6AD6CF" fill-opacity="0.15"/>
<path d="M575.965 154.416C516.696 154.416 459.619 138.252 404.394 122.613C360.277 110.121 314.657 97.202 268.262 92.6312C214.843 87.3636 160.682 96.8992 108.304 106.118L100.154 107.55C43.8935 117.451 -14.2765 127.693 -73.1655 125.943L-73.085 124.021C-14.4836 125.756 43.5541 115.543 99.6763 105.666L107.827 104.234C160.389 94.9815 214.739 85.417 268.526 90.7183C315.164 95.3179 360.898 108.266 405.131 120.791C460.845 136.565 518.468 152.873 578.105 152.483C615.47 152.234 653.209 144.361 689.705 136.743C740.737 126.092 793.512 115.081 846.332 124.631C856.956 126.554 867.091 129.918 876.887 133.177C887.896 136.834 899.285 140.622 911.272 142.289C933.371 145.365 957.817 142.943 983.92 135.085C1009.27 127.452 1033.12 116.22 1056.19 105.358C1076.27 95.8995 1097.04 86.1236 1118.78 78.7171C1152.09 67.3696 1179.99 64.3705 1206.61 69.2777C1239.87 75.4104 1270.4 89.5696 1299.92 103.267C1301.71 104.099 1303.5 104.93 1305.29 105.757C1308.75 107.358 1312.21 108.972 1315.68 110.592C1345.33 124.434 1376 138.742 1409.15 145.596C1447 153.421 1480.81 146.245 1509.62 124.271L1511.17 125.689C1481.76 148.124 1447.24 155.449 1408.6 147.461C1375.14 140.55 1344.35 126.174 1314.56 112.27C1311.09 110.65 1307.63 109.035 1304.17 107.439C1302.39 106.613 1300.6 105.781 1298.8 104.95C1269.42 91.3191 1239.04 77.2272 1206.11 71.1569C1179.97 66.3362 1152.49 69.3065 1119.64 80.4954C1098.04 87.8538 1077.34 97.6057 1057.32 107.031C1034.16 117.931 1010.22 129.207 984.697 136.892C958.214 144.861 933.383 147.317 910.887 144.183C898.658 142.482 887.154 138.656 876.03 134.96C866.32 131.735 856.277 128.395 845.837 126.51C793.54 117.057 741.036 128.01 690.257 138.608C653.629 146.25 615.757 154.151 578.116 154.401C577.403 154.416 576.684 154.416 575.965 154.416Z" fill="#6AD6CF" fill-opacity="0.15"/>
<path d="M586.077 139.886C536.575 139.886 487.194 127.722 439.424 115.951L433.66 114.533C425.798 112.601 417.797 110.597 410.06 108.655C363.135 96.8992 314.611 84.7394 265.207 80.3945C214.279 75.9151 162.833 84.9989 113.073 93.7799L106.625 94.919C51.4688 104.628 -11.0497 115.634 -73.2115 111.525L-73.0275 109.607C-11.1992 113.697 48.4605 103.195 106.153 93.0397L112.601 91.9007C162.534 83.086 214.164 73.9685 265.455 78.4816C315.077 82.8457 363.705 95.0295 410.733 106.814C418.469 108.751 426.465 110.756 434.322 112.688L440.086 114.106C487.959 125.9 537.473 138.118 586.894 137.959C623.96 137.858 661.198 130.245 697.211 122.882C746.219 112.866 796.888 102.503 847.966 110.866C858.147 112.534 867.96 115.427 877.456 118.224C888.724 121.546 900.378 124.982 912.561 126.313C933.256 128.577 956.069 126.491 980.354 120.123C1006.99 113.135 1032.23 102.33 1056.64 91.8814C1077.94 82.764 1099.96 73.3341 1122.89 66.4372C1154.4 56.9592 1180.56 54.3783 1205.21 58.3146C1238.87 63.6928 1270.13 76.9725 1300.38 89.8148L1304.02 91.3624C1306.46 92.4005 1308.92 93.4483 1311.4 94.5008C1374.89 121.541 1446.85 152.19 1509.69 109.814L1511.13 111.308C1482.57 130.572 1449.58 136.695 1410.3 130.024C1376.09 124.213 1342.67 109.977 1310.35 96.2119C1307.87 95.1593 1305.42 94.1115 1302.97 93.0734L1299.33 91.5258C1269.24 78.746 1238.11 65.5288 1204.77 60.1986C1180.55 56.3296 1154.77 58.8865 1123.66 68.2395C1100.87 75.0932 1078.91 84.4942 1057.68 93.5829C1033.19 104.07 1007.86 114.913 981.038 121.949C956.431 128.404 933.291 130.514 912.262 128.212C899.837 126.857 888.069 123.386 876.691 120.027C867.275 117.249 857.537 114.379 847.523 112.741C796.945 104.459 746.518 114.769 697.758 124.737C661.612 132.124 624.242 139.766 586.9 139.867C586.623 139.886 586.347 139.886 586.077 139.886Z" fill="#6AD6CF" fill-opacity="0.15"/>
<path d="M595.275 124.737C546.739 124.737 497.749 113.894 450.33 103.397C446.562 102.561 442.806 101.734 439.073 100.912C431.429 99.2302 423.652 97.4951 416.128 95.8178C368.818 85.2536 319.897 74.329 270.476 69.84C213.405 64.6588 156.656 74.329 101.776 83.682C44.9863 93.3618 -13.7358 103.368 -73.2691 97.1058L-72.9815 95.1978C-13.8279 101.422 44.7102 91.4441 101.316 81.7979C156.368 72.4161 213.301 62.7123 270.724 67.9271C320.323 72.4305 369.33 83.3744 416.721 93.9577C424.239 95.6351 432.015 97.3702 439.654 99.0524C443.387 99.8742 447.143 100.706 450.917 101.537C499.274 112.241 549.282 123.314 598.588 122.795C634.244 122.425 669.959 115.36 704.499 108.53C750.935 99.3455 798.947 89.8484 847.546 96.4474C857.899 97.8508 867.954 100.475 877.68 103.013C888.661 105.877 900.015 108.838 911.727 110.011C932.974 112.135 955.511 110.313 980.624 104.445C1007.11 98.2545 1032.58 88.6276 1057.21 79.3179C1077.49 71.6519 1098.46 63.7216 1119.95 57.7234C1154.41 48.1109 1182.94 45.6213 1209.74 49.8892C1241.94 55.0175 1272.37 66.5813 1301.8 77.7703L1302.13 77.8953C1305.25 79.0824 1308.4 80.284 1311.56 81.4951C1374.72 105.656 1446.31 133.047 1509.73 95.366L1511.07 96.9328C1488 110.635 1463.94 115.908 1439.64 115.908C1395.99 115.908 1351.54 98.9034 1310.6 83.2446C1307.44 82.0334 1304.29 80.8319 1301.18 79.6447L1300.85 79.5198C1271.55 68.3837 1241.25 56.8631 1209.32 51.7781C1182.92 47.5726 1154.75 50.043 1120.69 59.5498C1099.31 65.5144 1078.39 73.4206 1058.17 81.0722C1033.46 90.4107 1007.91 100.071 981.257 106.3C955.844 112.241 933.02 114.077 911.468 111.923C899.55 110.732 888.092 107.742 877.007 104.854C867.361 102.335 857.382 99.7348 847.195 98.3506C799.045 91.8141 751.257 101.263 705.046 110.405C670.384 117.258 634.543 124.348 598.634 124.723C597.506 124.732 596.39 124.737 595.275 124.737Z" fill="#6AD6CF" fill-opacity="0.15"/>
<path d="M601.59 109.03C555.971 109.03 509.455 99.98 464.371 91.2086C458.584 90.0839 452.838 88.964 447.137 87.8778C438.768 86.2773 430.261 84.624 422.03 83.0235C372.385 73.3726 321.042 63.39 269.487 59.3768C215.338 55.1617 161.522 63.861 109.472 72.2719C50.1804 81.8556 -11.1244 91.7613 -73.3266 82.6823L-72.9297 80.7886C-11.1474 89.8099 49.9503 79.9331 109.035 70.3831C161.246 61.9433 215.228 53.22 269.706 57.4591C321.416 61.4867 372.833 71.4789 422.553 81.1491C430.779 82.7496 439.286 84.4029 447.649 86.0034C453.35 87.0944 459.102 88.2095 464.888 89.3389C512.929 98.6823 562.597 108.348 610.903 106.983C644.143 106.041 677.591 99.7733 709.935 93.7078C755.824 85.1046 803.284 76.2131 851.101 82.3122C860.528 83.5138 869.783 85.667 878.727 87.7481C888.644 90.0551 898.894 92.439 909.334 93.5059C932.284 95.8562 956.92 94.15 984.65 88.2864C1009.71 82.9899 1034.2 75.0596 1057.9 67.384C1079.94 60.2419 1102.75 52.8595 1126 47.5967C1158.03 40.344 1184.72 38.5225 1210 41.8628C1242.97 46.2221 1274.55 56.7814 1305.08 66.9947L1311.99 69.3017C1374.81 90.2906 1446.02 114.082 1509.79 80.9136L1511 82.5477C1489.36 93.8039 1465.56 99.3744 1438.85 99.3744C1429.81 99.3744 1420.45 98.74 1410.71 97.4711C1376.91 93.0638 1343.47 81.8941 1311.13 71.0896L1304.23 68.7826C1273.81 58.6078 1242.36 48.0917 1209.65 43.7613C1184.7 40.4642 1158.31 42.2713 1126.61 49.4519C1103.47 54.6907 1080.73 62.0538 1058.73 69.1767C1034.97 76.8715 1010.41 84.8259 985.214 90.1464C957.202 96.0677 932.29 97.7883 909.052 95.4092C898.445 94.323 888.109 91.9199 878.112 89.5937C869.231 87.527 860.045 85.393 850.755 84.2059C803.359 78.1644 756.123 87.0175 710.441 95.5774C677.988 101.657 644.437 107.949 610.983 108.896C607.86 108.987 604.719 109.03 601.59 109.03Z" fill="#6AD6CF" fill-opacity="0.15"/>
<path d="M609.666 92.6985C563.063 92.6985 515.477 84.773 469.363 77.0878C462.748 75.9872 455.909 74.8481 449.248 73.7619C441.736 72.5363 434.224 71.3011 426.706 70.0611C375.525 61.6165 322.595 52.8835 269.752 49.3894C218.288 45.9866 166.992 53.7583 117.387 61.2752C55.4032 70.6667 -8.68558 80.3753 -73.3841 68.2491L-72.8779 66.3747C-8.62807 78.4143 55.2307 68.7393 116.984 59.3816C166.733 51.8454 218.179 44.0496 269.941 47.4717C322.917 50.9755 375.91 59.718 427.161 68.1722C434.673 69.4122 442.185 70.6522 449.697 71.873C456.358 72.9592 463.203 74.0983 469.818 75.1989C518.733 83.3455 569.31 91.7757 618.467 90.6751C651.644 89.9349 684.862 84.1001 716.987 78.4624C759.408 71.0175 803.273 63.3131 847.684 67.2013C858.457 68.1434 869.075 70.2437 879.343 72.2767C889.518 74.2906 900.044 76.3717 910.651 77.3089C932.227 79.2074 955.281 78.0731 981.136 73.8436C1007.54 69.5276 1033.58 62.5489 1058.76 55.8057C1080.2 50.0623 1102.37 44.1265 1124.7 39.8394C1157.07 33.6249 1183.95 31.9091 1209.28 34.4371C1242.67 37.7727 1275.09 46.967 1306.45 55.8538L1311.84 57.3822C1377.62 76.04 1445.64 95.3371 1509.86 66.4612L1510.95 68.153C1481.81 81.2548 1449.06 85.6333 1410.81 81.5384C1377.13 77.9337 1343.56 68.4125 1311.1 59.2037L1305.71 57.6754C1274.47 48.8174 1242.16 39.6567 1209.01 36.3452C1183.95 33.8412 1157.32 35.5474 1125.22 41.7138C1102.97 45.9866 1080.86 51.9079 1059.47 57.6369C1034.23 64.3993 1008.12 71.3924 981.585 75.7324C955.499 79.9956 932.221 81.1395 910.415 79.2218C899.659 78.2749 889.064 76.1794 878.814 74.1512C868.621 72.1326 858.078 70.0466 847.448 69.1142C803.399 65.2596 759.713 72.9256 717.464 80.3416C685.242 85.9986 651.92 91.8478 618.536 92.5928C615.579 92.6649 612.623 92.6985 609.666 92.6985Z" fill="#6AD6CF" fill-opacity="0.15"/>
<path d="M618.61 75.7805C569.419 75.7805 519.463 68.9989 471.129 62.4335C465.688 61.6934 460.264 60.958 454.851 60.2323C446.689 59.1365 438.521 58.0262 430.353 56.916C378.677 49.8892 325.241 42.6174 272.144 39.6471C223.005 36.8931 173.716 43.8334 126.044 50.5381C60.9711 59.694 -6.31576 69.1623 -73.4301 53.8207L-72.8204 51.9655C-6.20072 67.1965 60.8331 57.7619 125.664 48.6396C173.463 41.9109 222.896 34.9562 272.3 37.7246C325.506 40.7045 378.993 47.9812 430.721 55.0175C438.889 56.1277 447.051 57.238 455.213 58.3338C460.626 59.0596 466.056 59.7949 471.497 60.5351C520.596 67.2013 571.363 74.0887 621.21 73.8532C655.573 73.685 689.964 68.1722 723.222 62.8421C764.579 56.2143 807.351 49.3557 850.589 52.6672C860.787 53.4459 870.91 55.1713 880.7 56.8391C889.673 58.3675 898.946 59.9439 908.212 60.7802C931.605 62.8949 956.834 62.0442 985.335 58.1848C1010.34 54.7964 1035.32 49.5047 1059.47 44.3861C1080.75 39.8778 1102.76 35.2158 1124.75 31.861C1158.75 26.6751 1188.78 25.4158 1216.54 28.016C1247.91 30.9526 1278.76 38.0947 1308.6 45.0013L1311.65 45.7078C1377.35 60.9244 1445.28 76.6552 1509.92 52.0232L1510.87 53.7727C1445.47 78.6931 1377.13 62.8661 1311.04 47.5582L1307.99 46.8517C1278.24 39.9643 1247.47 32.8463 1216.29 29.9241C1188.75 27.3479 1158.94 28.5976 1125.17 33.7499C1103.26 37.0902 1081.28 41.7475 1060.04 46.2461C1035.84 51.3744 1010.82 56.6757 985.703 60.0785C956.995 63.9667 931.571 64.8174 907.965 62.6835C898.595 61.8376 889.265 60.2467 880.24 58.7135C870.508 57.0554 860.448 55.3443 850.376 54.5753C807.46 51.2927 764.855 58.1223 723.653 64.7261C690.292 70.0755 655.797 75.6027 621.222 75.7757C620.353 75.7757 619.479 75.7805 618.61 75.7805Z" fill="#6AD6CF" fill-opacity="0.15"/>
<path d="M617.909 58.2617C569.971 58.2617 521.287 52.9941 474.149 47.8995C468.063 47.241 461.989 46.5825 455.927 45.9385C447.845 45.0782 439.769 44.2083 431.688 43.3335C379.684 37.7246 325.908 31.9235 272.679 29.5924C216.057 27.1172 163.121 34.8024 107.073 42.9394L106.901 42.9634C53.2692 50.7496 -10.1063 56.4161 -73.4819 39.3876L-72.7801 37.5564C-9.87625 54.46 53.1484 48.8222 106.51 41.0746L106.682 41.0505C162.862 32.8943 215.919 25.1899 272.8 27.6796C326.121 30.0106 379.937 35.8165 431.987 41.4302C440.068 42.3002 448.144 43.1749 456.226 44.0304C462.288 44.6745 468.362 45.3329 474.448 45.9914C523.127 51.2542 573.451 56.6997 622.827 56.32C657.103 56.0557 691.54 51.3648 724.844 46.8277C765.666 41.2668 807.88 35.5137 850.289 37.8352C861.034 38.4215 871.75 39.9115 882.109 41.3533C890.559 42.5261 899.297 43.742 907.976 44.4534C931.416 46.3807 956.782 45.9433 985.525 43.1268C1010.64 40.666 1035.91 36.6624 1060.35 32.7886C1081.84 29.381 1104.07 25.858 1126.15 23.3924C1194.8 15.7216 1257.32 24.2431 1309.42 33.5912L1311.4 33.9469C1377.05 45.727 1444.94 57.9109 1510.01 37.5756L1510.81 39.378C1485.17 47.39 1459.13 50.4131 1433 50.4131C1392.19 50.4131 1351.14 43.0451 1310.92 35.8262L1308.94 35.4705C1257.03 26.156 1194.75 17.6681 1126.45 25.3005C1104.44 27.7613 1082.24 31.2794 1060.78 34.6775C1036.3 38.5561 1010.99 42.5645 985.795 45.0349C956.891 47.8706 931.364 48.3032 907.758 46.3663C899.003 45.6453 890.226 44.4293 881.736 43.247C871.434 41.8147 860.775 40.3344 850.146 39.7529C808.006 37.4459 765.919 43.1797 725.224 48.7261C691.839 53.2728 657.316 57.9782 622.861 58.2425C621.205 58.2569 619.548 58.2617 617.909 58.2617Z" fill="#6AD6CF" fill-opacity="0.15"/>
<path d="M606.893 40.195C563.006 40.195 518.457 36.475 475.236 32.8703C466.533 32.1446 457.537 31.3948 448.731 30.6883C442.524 30.1932 436.324 29.6934 430.117 29.1887C379.103 25.0746 326.345 20.8162 274.278 19.1148C215.832 17.2067 161.039 24.8775 108.057 32.2936C72.7455 37.2392 43.6864 39.2818 16.606 38.7291C-16.0136 38.0611 -45.4926 33.5576 -73.5221 24.9592L-72.7284 23.1569C-8.61656 42.8192 54.4426 37.8544 107.677 30.3999C160.774 22.9646 215.677 15.2794 274.365 17.1971C326.501 18.8985 379.287 23.1569 430.336 27.2758C436.542 27.7757 442.743 28.2755 448.949 28.7754C457.761 29.4819 466.758 30.2317 475.46 30.9574C523.254 34.9466 572.681 39.0704 620.951 38.1428C654.417 37.4987 688.21 33.9469 720.887 30.5104C762.186 26.1704 804.889 21.6862 847.431 22.9983C859.706 23.378 872.003 24.6708 883.898 25.9253C892.929 26.8769 902.27 27.8622 911.514 28.4341C933.458 29.7943 957.081 29.6597 983.736 28.0208C1009.74 26.4251 1036.04 23.5558 1061.47 20.7778C1084.67 18.2449 1108.66 15.6303 1132.39 13.9818C1185.26 10.3098 1239.83 12.6552 1309.31 21.5948L1311.11 21.8255C1376.7 30.2701 1444.53 38.9983 1510.08 23.1328L1510.72 24.9784C1444.68 40.964 1376.6 32.2022 1310.75 23.724L1308.96 23.4933C1239.67 14.5777 1185.26 12.2323 1132.58 15.8946C1108.91 17.5384 1084.94 20.153 1061.77 22.6811C1036.31 25.4591 1009.98 28.3332 983.908 29.9337C957.139 31.5774 933.406 31.712 911.347 30.347C902.04 29.7703 892.67 28.785 883.611 27.8286C871.767 26.5837 859.521 25.2909 847.344 24.916C804.992 23.6087 762.382 28.0833 721.174 32.4137C688.434 35.855 654.583 39.4116 621.003 40.0557C616.31 40.1518 611.604 40.195 606.893 40.195Z" fill="#6AD6CF" fill-opacity="0.15"/>
<path d="M32.1594 27.0067C-7.13255 27.0067 -41.2534 21.5804 -73.5624 10.5261L-72.6881 8.74775C-21.5643 26.2377 34.2013 29.5155 108.126 19.384C160.952 12.1458 215.573 4.66243 273.772 5.87841C320.87 6.8637 368.778 9.75225 415.105 12.5399C479.153 16.3993 545.382 20.3885 610.489 19.4176C645.449 18.8985 680.887 16.356 715.158 13.8952C757.861 10.8385 802.024 7.66634 845.74 8.37766C863.864 8.67085 882.127 9.61287 899.785 10.5213C927.194 11.9343 955.54 13.3906 983.782 12.4438C1009.91 11.5642 1036.44 9.82915 1062.08 8.15177C1085.45 6.62338 1109.62 5.04213 1133.45 4.10971C1186.52 2.03822 1244.21 3.61467 1309.84 8.93999L1310.55 8.99767C1376.19 14.3182 1444.07 19.8213 1510.17 8.69488L1510.62 10.5789C1444.2 21.7679 1376.14 16.2503 1310.33 10.9106L1309.62 10.8529C1244.11 5.54198 1186.52 3.96553 1133.56 6.03221C1109.77 6.95982 1085.62 8.54108 1062.26 10.0695C1036.6 11.7468 1010.06 13.4819 983.88 14.3663C955.517 15.3179 927.113 13.8568 899.647 12.4438C882.012 11.5354 863.778 10.5982 845.699 10.305C802.111 9.59845 758.004 12.761 715.353 15.8225C681.048 18.2833 645.57 20.8307 610.529 21.3497C545.313 22.3158 479.032 18.3218 414.932 14.4624C368.634 11.6748 320.754 8.791 273.709 7.80572C215.734 6.58974 161.217 14.0586 108.494 21.2824C80.7523 25.0842 55.5413 27.0067 32.1594 27.0067Z" fill="#6AD6CF" fill-opacity="0.15"/>
<path d="M37.5087 15.0007C30.2785 15.0007 23.2323 14.8084 16.3471 14.4191C-16.0366 12.6072 -45.4581 6.61377 -73.5969 -3.9023L-72.6593 -5.65658C-20.7935 13.727 35.0814 17.8652 108.517 7.75766C118.146 6.43113 127.924 4.96523 137.375 3.54738C152.393 1.29325 167.924 -1.03778 183.305 -2.86415C214.112 -6.52171 244.345 -6.76683 272.432 -6.47845C317.39 -6.02186 363.101 -4.5944 407.305 -3.21501C467.879 -1.32135 530.519 0.634798 592.111 0.115723C629.672 -0.196683 667.836 -1.5953 704.741 -2.94586C750.078 -4.60401 796.963 -6.31985 843.151 -6.04589C863.197 -5.92573 883.524 -5.32976 903.185 -4.75782C929.558 -3.98401 956.828 -3.18617 983.724 -3.53222C1009.99 -3.86866 1036.68 -4.64246 1062.49 -5.39224C1086 -6.07473 1110.29 -6.78125 1134.21 -7.15133C1189.54 -8.01165 1247.09 -7.25706 1310.14 -4.84433C1375.72 -2.33066 1443.53 0.264717 1510.27 -5.7479L1510.52 -3.83501C1443.6 2.19202 1375.7 -0.408158 1310.03 -2.92183C1247.02 -5.33456 1189.53 -6.08915 1134.24 -5.22883C1110.35 -4.85875 1086.06 -4.15223 1062.57 -3.46974C1036.74 -2.71997 1010.04 -1.94616 983.753 -1.60972C956.805 -1.26848 929.5 -2.06632 903.099 -2.83532C883.456 -3.41207 863.139 -4.00323 843.128 -4.12339C797.003 -4.39734 750.141 -2.68152 704.833 -1.02336C667.911 0.327197 629.729 1.72581 592.128 2.03822C530.478 2.55249 467.816 0.596347 407.213 -1.29732C363.02 -2.67671 317.326 -4.10417 272.397 -4.56076C244.402 -4.84433 214.273 -4.60401 183.621 -0.965683C168.286 0.855885 152.773 3.18211 137.778 5.43624C128.316 6.85408 118.537 8.32479 108.885 9.65132C82.915 13.232 59.3663 15.0007 37.5087 15.0007Z" fill="#6AD6CF" fill-opacity="0.15"/>
<path d="M40.5458 2.53327C32.2341 2.53327 24.1411 2.26411 16.2321 1.73062C-16.0251 -0.456222 -45.4179 -7.02156 -73.6257 -18.3355L-72.6306 -20.0705C-20.7993 0.72131 36.8588 5.61888 108.839 -4.65208C119.222 -6.1324 129.754 -7.79536 139.935 -9.40546C154.165 -11.6548 168.879 -13.981 183.448 -15.8506C213.169 -19.662 242.729 -20.1763 270.217 -20.157C312.023 -20.133 354.525 -20.0465 395.628 -19.9696C451.003 -19.859 508.264 -19.7485 564.582 -19.7773C673.099 -19.835 783.434 -19.9215 890.134 -20.0032C971.611 -20.0657 1053.08 -20.1282 1134.56 -20.1811C1180.74 -20.2099 1227.68 -20.1138 1273.08 -20.0225C1350.86 -19.8639 1431.29 -19.7004 1510.38 -20.1618L1510.4 -18.2393C1431.29 -17.7779 1350.86 -17.9414 1273.08 -18.1C1227.68 -18.1913 1180.73 -18.2874 1134.56 -18.2586C1053.08 -18.2057 971.605 -18.1432 890.134 -18.0807C783.434 -17.999 673.099 -17.9125 564.582 -17.8548C508.264 -17.8212 450.997 -17.9365 395.623 -18.0471C354.519 -18.1288 312.017 -18.2105 270.212 -18.2345C242.803 -18.2586 213.359 -17.7443 183.794 -13.9474C169.264 -12.0825 154.568 -9.76112 140.355 -7.5166C130.162 -5.90651 119.624 -4.23874 109.219 -2.75842C84.4566 0.778984 61.7707 2.53327 40.5458 2.53327Z" fill="#6AD6CF" fill-opacity="0.15"/>
</g>
<defs>
<clipPath id="clip0_11_111">
<rect width="1438" height="769" fill="white"/>
</clipPath>
</defs>
</svg>
